<?xml version="1.0" encoding="utf-8"?>
<!-- (c) ammap.com | SVG map of USA -->


<svg width="802" height="495" viewBox="0 0 802 495" fill="none" xmlns="http://www.w3.org/2000/svg">
<path id="US-AL" title="01" class="land" d="M71.1813 0.402389C71.1813 0.583273 71.6034 1.24651 72.146 1.84946C73.2916 3.11565 72.9299 4.68331 70.8799 6.85392C69.6137 8.2407 69.4931 8.72306 70.0357 9.74807C70.3975 10.4716 70.5784 12.7628 70.4578 15.1143C70.2769 18.6717 69.9754 19.5158 68.649 20.9026C67.2622 22.2291 66.9004 22.3497 66.1166 21.6864C65.2724 21.0232 64.7298 21.2041 62.6798 22.6511C58.2783 25.7262 57.4944 26.0879 56.5297 25.7262C55.9268 25.485 55.5047 24.7012 55.5047 23.857C55.5047 22.1688 59.0018 17.6467 61.3533 16.2599C62.2577 15.7173 63.0415 15.054 63.1621 14.6922C63.4033 14.029 56.4091 9.74807 53.4547 8.66277C52.4297 8.3613 49.837 6.79363 47.7267 5.22597C45.6164 3.6583 43.4458 2.39211 42.8428 2.39211C41.0943 2.39211 40.1898 5.46715 41.0943 8.24071C41.5766 9.68778 41.8781 13.2452 41.8178 18.0687C41.7575 24.8218 41.8178 25.6056 42.9031 26.3894C44.4105 27.4747 44.3502 28.4394 42.5413 30.1277C41.2148 31.3939 41.1546 31.6351 41.9384 32.7807C43.1443 34.4086 43.084 36.7601 41.8781 38.4484C41.3354 39.2322 41.034 39.8954 41.0943 39.9557C41.2148 40.0763 42.3604 40.5587 43.6266 41.1616C44.8928 41.7043 46.0384 42.669 46.2796 43.2116C46.4605 43.8146 47.6664 45.4426 48.9326 46.8293C51.5855 49.7235 52.1885 51.472 51.7061 54.9691C51.4047 57.0191 51.6458 57.6824 52.7914 58.828C54.1179 60.1545 54.6606 60.2751 59.5444 60.1545C64.3077 59.9736 65.2122 60.1545 68.2872 61.6618C70.9401 62.928 72.146 63.2295 74.0152 62.928C75.2814 62.7471 77.0902 62.928 78.1152 63.2898C79.2608 63.7721 84.4462 64.1339 92.2845 64.1942C103.077 64.3751 105.127 64.556 108.564 65.7016C112.182 66.9678 115.98 67.8722 123.276 69.3193C126.592 69.9825 127.617 69.3796 126.532 67.3295C125.688 65.7016 126.17 63.531 135.214 27.2335C136.541 21.807 137.385 17.1643 137.144 16.9231C136.842 16.682 134.008 15.8981 130.873 15.1143C127.738 14.3908 124.12 13.5466 122.914 13.2452C118.272 12.0393 115.438 11.3157 113.267 10.7731C112.001 10.4716 109.951 9.98925 108.745 9.68778C107.479 9.32601 105.248 8.78336 103.74 8.48189C97.4095 6.97452 82.577 2.93477 78.1152 1.48769C73.2916 -0.0196744 71.1813 -0.381443 71.1813 0.402389Z" />
<path id="US-AL" title="02" class="land" d="M139.911 18.9721C139.549 19.8765 139.006 21.8663 138.645 23.4339C137.68 27.8354 132.736 48.3356 132.133 50.3254C130.806 54.6063 129.118 62.5652 129.118 64.2534C129.118 71.0667 129.42 72.8756 130.686 74.2624C131.349 75.0462 132.374 76.7345 132.917 78.0006L133.881 80.4124L132.012 82.3419C129.962 84.4522 128.455 86.7434 125.5 92.2302C124.536 94.1596 122.968 96.0288 121.883 96.6317C120.858 97.2347 119.471 98.8023 118.808 100.069L117.662 102.36L119.411 104.591C120.436 105.857 121.22 107.183 121.22 107.545C121.22 107.907 120.436 109.173 119.471 110.319C118.325 111.766 117.421 113.816 116.878 116.65C116.336 119.001 114.647 125.754 113.08 131.723C109.04 146.857 108.799 145.712 115.793 147.46C136.896 152.646 145.82 154.696 156.733 156.806C163.546 158.132 170.36 159.399 171.867 159.7C173.374 160.001 176.329 160.604 178.5 160.966C180.67 161.328 183.564 161.931 184.951 162.232C189.292 163.197 191.101 162.956 191.463 161.388C191.644 160.665 193.151 151.922 194.839 141.973C198.276 122.076 198.939 116.348 197.854 116.348C197.492 116.348 197.191 115.926 197.191 115.504C197.191 114.78 196.829 114.72 195.382 115.263C193.513 115.866 191.523 115.745 187.061 114.6C185.011 114.057 184.228 114.117 183.142 114.78C181.454 115.926 174.339 115.625 173.616 114.419C173.073 113.575 171.867 108.389 171.867 107.002C171.867 106.52 171.445 106.098 170.963 106.098C170.48 106.098 169.516 105.555 168.792 104.832C167.827 103.867 167.646 103.144 167.888 101.636C168.129 100.43 167.948 98.9832 167.345 97.8376C166.863 96.8729 166.199 94.5817 165.838 92.8331C165.476 91.0243 165.174 89.5169 165.054 89.4566C164.993 89.3963 163.788 89.6375 162.401 89.9993C159.929 90.6022 159.748 90.6022 157.999 88.914C156.492 87.4669 156.19 86.8037 156.492 85.2963C156.733 84.3316 157.396 82.7639 158.06 81.8595C158.663 80.9551 159.205 79.3271 159.205 78.1815C159.205 77.0962 159.446 75.9506 159.748 75.6491C159.989 75.2874 160.592 73.78 161.014 72.1521L161.798 69.3182L158.663 65.7608C156.974 63.7711 155.588 61.7814 155.588 61.299C155.588 60.1534 152.633 53.7622 151.91 53.2798C151.608 53.0989 150.643 51.893 149.799 50.5665C148.654 48.6974 148.412 47.7327 148.714 45.8033C149.015 43.9341 148.774 42.6679 147.508 40.0753L145.94 36.6988L147.93 28.4384C149.317 22.7707 149.739 20.0574 149.317 19.8162C148.955 19.5751 147.267 19.153 145.639 18.7912C143.951 18.4295 142.142 17.9471 141.599 17.7662C140.815 17.4647 140.393 17.7662 139.911 18.9721Z" />
<path id="US-AL" title="03" class="land" d="M152.337 21.1438C151.373 23.9173 148.961 33.9865 148.961 35.1924C148.961 35.9763 149.504 37.966 150.167 39.5337C150.89 41.2219 151.373 43.4528 151.312 44.9602C151.192 47.0102 151.493 47.9749 152.94 49.7235C153.905 50.9897 154.87 52.2559 155.051 52.6779C156.739 55.8735 158.005 58.9486 158.005 59.7324C158.005 60.2148 158.849 61.6015 159.814 62.6868C160.839 63.7721 161.623 64.9177 161.623 65.2192C161.623 65.4604 162.105 65.7016 162.768 65.7016C164.999 65.7016 165.18 66.9678 163.733 71.309C163.01 73.5399 162.226 75.5899 161.985 75.7708C161.804 76.012 161.623 77.2782 161.623 78.6047C161.623 80.112 161.14 81.6797 160.417 82.5841C158.005 85.6591 159.573 88.1915 162.889 86.5636C166.567 84.7547 167.351 85.418 168.496 91.568C168.979 93.9195 169.763 96.5725 170.305 97.4166C171.029 98.3813 171.21 99.5269 170.969 100.673C170.667 102.059 170.908 102.542 172.416 103.627C173.682 104.531 174.345 105.617 174.586 107.184C175.31 111.224 175.491 111.586 176.757 111.224C177.36 110.983 178.505 111.284 179.229 111.767C180.374 112.611 180.676 112.611 182.183 111.706C183.57 110.862 184.233 110.862 187.007 111.465C193.579 112.973 193.278 112.973 194.061 111.284C195.026 109.053 197.619 109.114 198.523 111.345C199.186 113.033 199.186 113.033 200.031 110.018C200.513 108.33 200.995 106.642 201.176 106.159C201.478 105.255 204.975 105.556 221.918 107.908C224.088 108.209 228.128 108.752 230.962 109.114C233.796 109.476 238.016 110.079 240.307 110.38C242.659 110.681 249.713 111.586 255.984 112.43C273.892 114.781 281.368 115.746 289.87 117.012C292.583 117.374 295.055 117.495 295.357 117.314C295.718 117.133 296.14 115.083 296.382 112.852C296.743 108.33 297.587 100.07 298.492 91.146C298.854 87.9503 299.758 78.2429 300.602 69.6207C301.446 60.9986 302.351 52.0147 302.652 49.7235C302.893 47.372 302.954 45.2014 302.652 44.8396C302.351 44.5381 299.215 43.8749 295.658 43.5131C292.101 43.0911 287.398 42.4881 285.227 42.1866C283.056 41.9455 278.896 41.3425 275.881 40.9807C272.927 40.619 268.827 40.0763 266.837 39.7748C264.847 39.4734 261.049 38.9307 258.396 38.5689C248.93 37.3028 244.347 36.6395 233.856 34.9513C231.746 34.6498 227.224 33.9263 223.726 33.3836C213.054 31.7556 194.966 28.6806 183.329 26.4497C175.31 24.9423 173.139 24.5203 170.969 24.0982C168.376 23.6159 163.432 22.5305 159.513 21.6261C154.267 20.4202 152.639 20.2996 152.337 21.1438Z" />
<path id="US-AL" title="04" class="land" d="M771.137 33.9865C769.689 37.0615 764.685 37.966 760.766 35.8557C759.56 35.2527 758.414 34.8909 758.173 35.0718C757.992 35.313 757.028 37.8454 756.003 40.7998L754.254 46.1058L754.676 58.8882C755.098 71.0075 755.038 71.7913 753.953 72.9972C753.35 73.7207 752.867 74.8663 752.988 75.6502C753.229 77.2178 750.697 79.5693 748.827 79.5693C747.38 79.5693 747.38 80.8355 748.827 85.3576C749.43 87.2871 750.817 91.7489 751.903 95.246C756.606 110.742 757.45 113.093 759.017 114.661C759.861 115.626 760.947 116.349 761.369 116.349C762.695 116.349 765.167 110.621 765.167 107.546C765.167 104.29 767.398 100.672 769.448 100.672C770.051 100.672 771.076 100.13 771.619 99.4666C772.222 98.8034 773.187 98.2607 773.79 98.2607C774.392 98.2607 775.056 97.718 775.237 97.1151C775.417 96.4519 776.322 95.668 777.287 95.3063C778.915 94.7636 779.035 94.5224 779.035 91.3871C779.035 85.84 780.844 83.1267 783.135 85.1767C783.738 85.6591 785.065 86.0209 786.331 85.9003C788.562 85.7797 790.612 84.2723 794.35 80.2326C795.375 79.1473 797.425 77.3987 798.932 76.3737C800.44 75.3487 801.766 74.4443 801.887 74.384C802.007 74.2634 801.827 73.8413 801.465 73.4193C801.103 72.9972 800.741 71.6707 800.621 70.5251C800.44 68.4751 800.379 68.4148 797.606 68.2339C794.712 68.053 794.049 67.5707 792.36 64.4354C791.637 63.1089 790.491 62.2045 788.682 61.5412L786.09 60.5765L784.401 53.9441C781.809 43.8146 779.879 37.4233 779.035 36.4586C778.191 35.4336 773.367 32.5394 772.463 32.5394C772.041 32.5394 771.498 33.2027 771.137 33.9865Z" />
<path id="US-AL" title="05" class="land" d="M306.087 45.8649C305.966 46.3472 305.665 48.5781 305.424 50.9296C304.76 58.2856 303.977 66.3651 303.072 75.349C301.143 94.4624 300.721 99.4669 301.082 99.8286C301.444 100.19 306.69 100.612 328.336 101.879C334.667 102.24 344.133 102.783 349.439 103.085C354.745 103.386 363.97 103.929 369.939 104.29C375.908 104.652 384.651 105.195 389.414 105.557C394.117 105.858 398.277 105.979 398.579 105.798C399.544 105.195 399.302 101.035 398.157 98.8036C397.373 97.236 396.951 93.9198 396.469 84.9961C395.866 74.6255 395.624 72.8769 394.358 70.2239C393.032 67.5107 392.911 66.3651 392.851 59.5518C392.851 54.3664 392.61 51.6532 392.127 51.1708C390.921 49.9649 385.796 49.5428 373.255 49.4826C366.804 49.4223 357.277 49.1208 352.152 48.8193C341.42 48.0355 315.191 45.9855 309.946 45.3825C307.172 45.1413 306.268 45.2016 306.087 45.8649Z" />
<path id="US-AL" title="06" class="land" d="M39.3444 46.3473C38.9827 46.5281 38.2591 48.0958 37.7768 49.7238C37.2341 51.412 36.5106 53.7032 36.1488 54.8488C35.7268 55.9944 34.9429 57.6224 34.4003 58.4665C33.7973 59.3106 32.8326 61.6018 32.29 63.5313C31.687 65.521 30.7223 67.9328 30.1194 68.9578C29.5164 69.9828 28.9738 71.1887 28.9738 71.5505C28.9738 71.9725 28.1296 74.1431 27.1046 76.374C23.306 84.6344 21.1354 90.1212 21.1354 91.508C21.1354 92.4727 20.0501 94.0404 17.8795 96.0301C16.131 97.7787 14.2618 99.9493 13.7795 100.974C13.0559 102.361 11.4883 114.058 11.4883 118.038C11.4883 118.701 12.9956 119.304 19.3266 121.173C21.7987 121.897 26.3208 123.283 29.2752 124.188C32.29 125.152 37.9577 126.901 41.9371 128.107C45.9166 129.313 50.6799 130.82 52.4887 131.423C60.5079 134.136 73.0492 137.392 90.7759 141.372C94.7553 142.276 98.8553 143.241 99.8201 143.482C100.845 143.784 102.895 144.206 104.402 144.386C107.116 144.809 107.236 144.748 107.538 143.06C107.719 142.156 108.382 139.322 109.045 136.85C112.603 123.404 114.11 117.555 114.592 115.023C114.894 113.455 115.858 111.104 116.763 109.777L118.331 107.366L116.763 105.496C115.919 104.411 115.195 103.024 115.195 102.301C115.195 100.492 117.245 97.236 120.26 94.3419C121.586 92.9551 123.697 90.1815 124.842 88.0109C125.988 85.9006 127.797 83.127 128.882 81.8609C131.113 79.2079 130.992 78.6049 127.978 74.9873C126.109 72.6961 125.506 72.3946 120.984 71.4299C115.436 70.2843 111.578 69.2593 106.754 67.8122C104.101 66.9681 100.966 66.7872 91.3788 66.7872C84.0831 66.7872 79.0184 66.546 78.536 66.1842C78.1743 65.8225 76.0639 65.5813 73.9536 65.6416C71.1198 65.7019 69.7933 65.4607 68.708 64.6166C65.3315 62.0842 62.1359 61.4812 58.6388 62.7474C56.1064 63.5916 53.2725 62.6871 50.8004 60.0945C49.1122 58.3459 48.9313 57.743 48.7504 54.0047C48.5695 50.387 48.3887 49.7238 47.0622 48.759C45.193 47.3723 40.1886 45.8046 39.3444 46.3473Z" />
<path id="US-AL" title="07" class="land" d="M395.509 50.3259C395.268 50.5068 395.388 51.773 395.75 53.1598C396.172 54.9686 396.172 56.1745 395.629 57.6216C394.785 60.0334 395.268 65.7011 396.534 68.2334C398.524 72.1526 399.006 75.2276 399.126 85.1763C399.187 93.9793 399.368 95.7278 400.393 97.8382C401.297 99.647 401.599 101.576 401.599 105.254C401.599 109.777 401.478 110.319 399.79 112.429C398.403 114.178 398.101 114.902 398.644 115.505C399.006 115.987 399.669 116.349 400.031 116.349C400.453 116.349 401.357 116.891 402.141 117.615L403.468 118.881L403.046 136.005L402.624 153.128H417.697C425.958 153.128 441.755 152.948 452.728 152.706L472.746 152.345V150.295C472.746 147.28 471.962 146.255 468.224 144.145C466.415 143.119 464.908 141.853 464.908 141.371C464.908 139.743 460.808 136.246 458.879 136.246C457.733 136.246 456.829 135.824 456.346 135.04C455.924 134.377 455.14 133.834 454.598 133.834C454.055 133.834 453.151 133.291 452.487 132.568C451.04 130.94 450.498 122.197 451.703 118.64C452.427 116.469 452.367 116.228 451.161 115.384C450.437 114.902 449.834 113.997 449.834 113.394C449.834 111.404 452.849 106.762 455.02 105.496L457.07 104.169V98.622C457.07 93.9793 457.251 92.8337 458.155 92.0499C458.758 91.4469 459.542 91.0248 459.904 91.0248C460.265 91.0248 461.471 90.1204 462.557 89.0351C463.702 87.9498 467.199 84.7542 470.335 81.9806C473.47 79.1468 477.208 75.7703 478.655 74.5041C480.102 73.1776 481.971 71.7305 482.876 71.3688C483.78 70.9467 485.288 69.982 486.313 69.1379C487.88 67.8114 488.001 67.5099 487.277 66.6658C486.614 65.8819 485.529 65.6408 482.755 65.7614C480.705 65.7614 477.992 65.6408 476.665 65.3996C474.736 65.0981 474.013 65.2187 473.41 65.9422C472.083 67.5099 468.104 67.2084 465.571 65.2187C464.365 64.3143 462.557 63.2893 461.471 62.9275C460.446 62.5657 458.336 61.4804 456.768 60.5157C450.317 56.5363 450.618 56.6569 443.805 57.0186C438.378 57.3201 437.293 57.2598 436.63 56.4157C436.027 55.6921 434.761 55.451 432.047 55.451C428.369 55.451 428.189 55.3907 426.199 53.0995L424.209 50.748L410.04 50.3259C402.262 50.0847 395.69 50.0847 395.509 50.3259Z" />
<path id="US-AL" title="08" class="land" d="M511.265 78.3027C509.878 79.6895 508.913 80.9557 509.154 81.1969C509.395 81.4381 510.662 80.4733 512.048 79.0866C515.365 75.8307 514.641 75.1071 511.265 78.3027Z" />
<path id="US-AL" title="09" class="land" d="M501.683 85.9005C498.548 88.0109 495.654 89.7594 495.232 89.7594C493.302 89.88 486.609 94.4021 486.609 95.5477C486.609 96.633 489.262 98.0198 492.337 98.5624C493.664 98.7433 495.834 99.3463 497.161 99.7683C499.935 100.733 505.18 101.758 510.546 102.361C513.983 102.783 514.466 103.024 517.299 105.918C519.832 108.511 520.374 109.415 520.374 111.224C520.374 112.732 520.676 113.455 521.46 113.757C522.002 113.938 522.907 114.48 523.449 114.963C524.354 115.686 524.595 115.566 525.68 113.817C526.344 112.732 527.429 110.621 528.152 109.114C528.997 107.365 530.323 105.858 531.891 104.833C534.182 103.326 536.654 103.085 536.654 104.351C536.654 105.376 538.403 104.893 539.066 103.687C539.428 103.024 540.995 102.12 542.563 101.698C544.131 101.215 546.784 99.9492 548.411 98.9242C551.909 96.6933 553.235 96.633 557.215 98.3213L560.169 99.5875L561.315 98.2007C562.34 96.8742 562.641 96.8139 564.329 97.4771C565.354 97.8389 566.319 97.9595 566.5 97.658C566.62 97.4168 566.078 95.8492 565.294 94.1006L563.787 91.0256H559.867C555.948 91.0256 554.139 90.1815 553.416 88.0109C553.235 87.4079 552.512 87.4079 549.919 88.0109C548.11 88.4329 546 88.9756 545.216 89.2771C544.432 89.5785 542.804 89.8197 541.538 89.8197C539.669 89.8197 538.644 90.3021 536.353 92.3521C533.7 94.7036 533.398 94.8242 531.288 94.2815C529.901 93.9197 528.273 93.9197 526.766 94.2815C524.595 94.8242 524.354 94.7639 522.847 93.0153C522.002 92.0506 520.374 90.6035 519.289 89.8197C517.299 88.4932 515.068 88.4329 509.702 89.5182C508.014 89.88 507.713 89.7594 507.411 88.4932C507.23 87.7094 507.29 85.9005 507.592 84.5138C507.954 83.127 508.014 81.9814 507.773 82.0417C507.592 82.0417 504.818 83.7902 501.683 85.9005Z" />
<path id="US-AL" title="10" class="land" d="M743.469 82.8251C742.987 83.4281 742.806 86.0208 742.926 91.0252L743.107 98.2606L741.298 99.9488C739.55 101.517 739.429 101.939 739.068 107.486C738.826 110.742 738.344 113.937 737.982 114.6C737.62 115.384 737.5 117.073 737.681 119.002C737.922 120.69 738.223 123.886 738.404 126.117C738.706 129.493 738.947 130.217 739.791 130.217C740.334 130.217 744.012 129.433 747.931 128.468C752.875 127.202 755.287 126.298 755.89 125.514C756.312 124.851 757.518 124.006 758.543 123.584C761.075 122.559 760.834 120.992 757.759 117.555C755.709 115.264 754.865 113.575 753.478 109.053C752.513 105.918 751.126 101.336 750.343 98.8635C748.956 94.6429 747.75 90.6635 745.881 84.5134C745.037 81.8001 744.615 81.4987 743.469 82.8251Z" />
<path id="US-AL" title="11" class="land" d="M735.026 89.1559C734.182 89.4574 732.011 90.0001 730.202 90.3618C727.007 91.0854 723.63 91.8692 720.555 92.7133C718.505 93.3163 718.144 96.934 719.892 99.3457C720.736 100.552 721.158 102.36 721.339 105.797C721.942 114.299 722.304 115.866 724.474 117.856C726.525 119.725 727.369 122.378 728.152 129.312C728.635 132.99 728.876 133.171 732.916 131.784C735.086 131 735.388 130.699 735.87 128.106C736.292 126.177 736.232 124.73 735.75 123.343C734.905 120.992 734.785 114.902 735.629 113.394C735.93 112.791 736.292 109.716 736.353 106.521C736.594 100.974 736.654 100.612 738.403 98.7428C740.091 96.934 740.211 96.4516 740.091 92.8339C739.97 88.975 739.91 88.9148 738.222 88.7942C737.317 88.7339 735.87 88.9148 735.026 89.1559Z" />
<path id="US-AL" title="12" class="land" d="M473.042 90.3619C472.017 90.9046 469.786 92.2311 468.037 93.3767C464.902 95.3664 463.334 95.5473 460.561 94.3414C459.596 93.9796 459.475 94.4017 459.475 99.3458V104.833L456.762 107.003C455.315 108.269 453.687 110.018 453.205 110.922C452.421 112.49 452.481 112.731 453.567 113.756C454.531 114.6 454.652 115.264 454.35 116.952C454.109 118.097 453.808 121.353 453.627 124.067C453.386 128.287 453.506 129.312 454.411 130.277C454.953 130.88 455.677 131.423 455.978 131.423C456.28 131.423 457.064 131.965 457.787 132.629C458.511 133.292 459.536 133.834 460.018 133.834C461.706 133.834 464.902 136.186 466.228 138.357C466.892 139.562 468.701 141.371 470.268 142.396C473.946 144.989 475.031 146.315 475.454 149.21C475.634 150.536 476.177 153.249 476.659 155.239C477.082 157.229 477.805 160.485 478.167 162.474C479.071 167.177 479.433 167.78 481.664 168.323C482.689 168.624 483.895 169.348 484.377 170.011C485.221 171.217 485.583 171.217 499.632 170.614C507.53 170.313 515.791 169.83 517.901 169.649L521.7 169.227L521.338 165.549C521.097 163.499 520.795 160.364 520.614 158.555C520.313 155.963 520.675 153.37 522.061 147.401C523.267 142.457 523.991 137.452 524.111 133.834L524.353 128.106L522.001 130.398C519.408 132.93 517.177 133.231 516.876 131.121C516.816 130.458 517.78 127.805 519.107 125.212C521.217 120.931 521.398 120.328 520.735 118.58C520.373 117.495 519.408 116.108 518.625 115.505C517.479 114.54 517.298 113.937 517.539 112.128C517.78 110.139 517.6 109.777 516.092 108.872C515.127 108.33 514.163 107.184 513.982 106.461C513.68 105.255 513.138 104.953 510.244 104.652C508.374 104.411 504.516 103.747 501.682 103.084C486.668 99.8282 485.04 99.2252 483.955 96.3311C483.292 94.5826 483.232 94.5223 479.373 94.7634L475.454 94.9443L475.634 92.9546C475.876 89.8193 475.212 89.156 473.042 90.3619Z" />
<path id="US-AL" title="13" class="land" d="M705.778 96.2105L696.734 98.2605L692.935 102.059C689.8 105.194 689.016 106.461 688.292 109.114C687.689 111.586 686.906 112.912 685.278 114.239C683.107 116.108 682.504 117.555 684.012 117.555C685.579 117.555 686.423 119.303 685.82 121.052C685.338 122.258 685.398 123.162 686.062 124.489C687.147 126.84 686.242 129.433 684.012 130.217C683.107 130.579 681.359 131.965 680.153 133.352C678.103 135.523 677.319 135.945 672.857 136.97C665.441 138.658 664.054 138.839 663.632 138.115C662.908 137.03 659.713 137.332 654.889 139.02C648.619 141.19 648.317 141.492 649.704 145.049C651.633 150.054 651.332 150.777 644.036 158.495C640.539 162.113 639.755 163.56 640.84 164.163C641.202 164.464 648.498 163.319 658.326 161.57C670.686 159.279 678.042 157.952 692.031 155.541C695.709 154.877 699.809 154.335 701.075 154.335C704.15 154.335 707.707 156.746 708.371 159.279C708.732 160.726 709.335 161.329 711.204 161.992C712.471 162.414 713.978 163.138 714.46 163.62C715.003 164.102 717.897 165.308 720.852 166.273C723.866 167.298 726.76 168.263 727.363 168.504C728.147 168.866 728.388 168.624 728.388 167.599C728.388 166.876 728.69 165.791 728.991 165.188C729.413 164.344 729.353 163.017 728.75 160.545C726.821 152.767 726.399 149.511 726.338 142.577C726.218 130.398 724.469 121.474 721.696 119.424C720.43 118.459 719.947 117.615 719.947 116.168C719.947 115.083 719.525 113.153 719.043 111.827C718.5 110.259 718.319 108.33 718.56 106.219C718.862 103.566 718.681 102.722 717.656 101.275C716.932 100.311 716.209 98.4414 715.968 97.0546C715.727 95.7282 715.425 94.5223 715.184 94.4017C715.003 94.2811 710.782 95.1252 705.778 96.2105Z" />
<path id="US-AL" title="14" class="land" d="M300.658 103.627C300.356 104.109 298.487 121.956 297.281 135.643C296.92 139.804 296.317 146.255 295.955 149.993C295.593 153.671 295.473 156.927 295.653 157.168C295.895 157.349 299.814 157.771 304.336 158.013C308.918 158.254 317.299 158.796 322.907 159.158C346.542 160.666 350.341 160.907 356.672 161.268C364.992 161.691 373.856 162.776 373.856 163.379C373.856 163.68 374.82 164.404 375.966 165.127C377.835 166.213 378.498 166.273 380.669 165.791C385.734 164.645 391.884 165.308 393.391 167.238C393.753 167.72 394.657 168.263 395.381 168.444C397.069 168.986 399.421 165.791 399.36 163.138C399.24 158.736 399.059 157.591 398.516 156.023C397.974 154.696 398.094 154.214 399.119 153.189C400.325 151.983 400.385 151.26 400.385 140.286C400.385 133.955 400.566 126.9 400.747 124.73C401.109 121.414 400.988 120.63 400.084 119.906C397.129 117.555 394.959 115.143 394.959 114.299C394.959 113.756 395.803 112.611 396.768 111.706C399.782 109.053 399.24 108.691 391.522 108.269C387.603 108.089 379.825 107.666 374.157 107.305C368.55 107.003 359.144 106.461 353.355 106.099C347.567 105.797 338.221 105.255 332.554 104.893C299.331 102.843 301.08 102.963 300.658 103.627Z" />
<path id="US-AL" title="15" class="land" d="M558.658 107.305C558.417 107.667 558.537 108.33 558.899 108.692C559.261 109.054 559.562 110.079 559.562 111.043C559.562 112.31 559.08 112.913 557.633 113.696C555.1 114.963 554.739 115.566 554.739 118.218C554.739 120.992 552.689 123.705 550.88 123.464C550.096 123.344 549.553 122.801 549.433 121.896C549.192 120.329 548.83 120.268 547.021 121.535C544.489 123.283 543.283 126.901 543.283 132.81C543.283 135.764 542.981 139.925 542.559 142.035C541.836 146.135 541.715 145.713 545.333 153.732C546.84 157.169 547.262 163.198 546.297 167.54C545.514 170.976 543.464 178.513 542.861 180.141C542.439 181.166 543.403 181.106 559.984 179.599C566.978 178.996 568.848 178.996 569.993 179.599C571.38 180.322 576.384 180.021 584.765 178.694C587.599 178.272 590.915 175.137 590.915 172.966C590.915 172.001 591.157 170.072 591.518 168.685C591.82 167.238 592.242 165.369 592.423 164.525C592.543 163.62 593.93 161.631 595.438 160.003C598.573 156.566 598.935 154.154 596.945 150.838C596.221 149.692 595.317 147.1 594.774 144.929C593.81 140.528 590.674 135.644 588.926 135.644C586.996 135.644 585.549 136.789 584.585 139.141C583.198 142.397 581.389 144.085 579.158 144.085C576.686 144.085 575.842 143.12 575.842 140.347C575.842 138.055 576.505 136.427 578.314 134.136C578.857 133.473 579.942 131.785 580.665 130.338L582.112 127.805L581.027 123.705C580.484 121.474 579.761 118.399 579.52 116.832C579.037 113.757 577.651 111.827 575.601 111.164C574.937 110.923 572.586 109.958 570.415 108.933C566.074 106.943 559.442 105.979 558.658 107.305Z" />
<path id="US-AL" title="16" class="land" d="M202.621 111.887C201.596 117.314 201.114 119.846 199.003 132.629C197.375 142.397 197.074 144.025 196.592 146.798C194.361 159.038 191.044 182.01 191.406 182.613C191.587 182.854 193.275 183.276 195.205 183.518C197.134 183.698 200.752 184.181 203.224 184.482C212.027 185.628 219.081 186.532 232.045 188.04C237.532 188.703 240.848 189.125 266.111 192.321C276.663 193.647 286.19 194.732 287.275 194.732H289.265L289.988 186.412C290.35 181.89 290.953 175.559 291.254 172.423C291.556 169.288 292.098 163.319 292.46 159.159C293.244 149.873 294.028 140.95 294.872 132.629C295.656 124.549 295.656 121.354 294.812 120.811C294.45 120.63 292.34 120.208 290.109 119.907C285.345 119.304 278.592 118.399 272.864 117.555C270.573 117.193 266.594 116.711 264.122 116.349C261.65 116.048 255.56 115.264 250.555 114.54C240.788 113.214 230.899 111.827 223.724 110.862C221.252 110.561 217.333 110.018 214.981 109.657C212.69 109.355 209.073 108.933 207.083 108.692L203.345 108.33L202.621 111.887Z" />
<path id="US-AL" title="17" class="land" d="M11.8484 122.439C10.7028 126.539 10.2808 128.589 10.2808 130.76C10.2808 134.498 6.96455 142.819 4.67335 144.808C3.64834 145.773 2.56304 146.497 2.26156 146.497C0.513015 146.497 -0.753174 150.778 0.513015 152.285C0.995373 152.767 2.86451 158.616 4.1307 163.379C4.49247 164.887 4.43217 166.213 3.82923 167.901C3.40716 169.228 2.86451 172.966 2.68363 176.343L2.32186 182.372L4.91453 187.497C7.14544 191.899 7.5072 193.165 7.5675 196.36C7.5675 199.375 7.86897 200.4 8.89398 201.425L10.1602 202.752L11.1249 200.822C12.2705 198.591 12.8131 198.531 16.5514 200.159C19.6867 201.606 20.1088 202.933 17.697 203.837C15.4058 204.681 15.2249 205.163 15.8882 208.54C16.8529 213.122 15.7073 214.63 13.2352 212.158C11.6675 210.59 11.3661 210.891 11.0043 214.569C10.6425 218.73 11.0646 219.996 13.8984 222.89C17.0338 226.146 17.1544 228.678 14.4411 231.814C12.572 233.924 12.572 233.984 13.2955 236.818C13.7176 238.386 14.622 240.858 15.2852 242.365C18.3 249.118 20.8323 254.243 21.8574 255.811C22.5206 256.715 22.9427 258.042 22.8824 258.826C22.7618 259.549 23.3044 261.117 24.0883 262.263C25.4147 264.433 25.475 264.614 24.2691 271.005C23.5456 274.804 23.7265 275.166 26.5603 276.432C27.8265 277.035 29.5148 278.12 30.2383 278.904C30.9619 279.688 32.2883 280.351 33.1325 280.351C35.6046 280.411 39.8252 283.305 41.212 285.898C42.4179 288.25 46.7591 291.807 48.4473 291.807C50.2562 291.807 52.1856 294.038 52.7885 296.691C53.0297 297.776 53.7533 298.741 54.5371 299.042C56.3459 299.706 58.9989 302.961 60.3254 305.976C60.9283 307.303 62.2548 309.172 63.3401 310.197C66.5357 313.212 68.4049 319.181 67.6211 323.582C67.3196 324.969 67.3196 326.356 67.5005 326.657C68.0431 327.501 98.1905 331.179 100.723 330.697C101.868 330.516 103.617 330.275 104.582 330.215C106.933 330.034 107.174 328.949 105.305 326.718C104.461 325.693 103.918 324.547 104.16 324.185C104.401 323.823 104.582 322.256 104.642 320.748C104.642 318.397 104.883 317.975 106.33 317.251C108.32 316.287 109.767 313.332 109.767 310.257C109.767 308.328 110.129 307.906 113.566 305.614C115.616 304.228 117.424 302.961 117.545 302.841C117.726 302.72 117.244 302.057 116.52 301.273C115.013 299.706 113.626 296.028 112.48 290.722C111.817 287.586 110.43 285.054 104.341 275.648C95.839 262.504 80.7653 239.109 71.6608 224.88C58.5768 204.38 51.4621 193.225 51.04 192.502C50.6782 191.838 51.1606 189.668 54.115 179.056C54.5974 177.247 55.5018 173.81 56.1048 171.519C57.7327 165.188 59.5416 158.616 62.1945 149.029C63.4607 144.266 64.546 139.744 64.546 139.02C64.546 137.814 63.9431 137.452 60.2048 136.307C57.793 135.583 55.14 134.739 54.2959 134.438C53.4518 134.136 49.9547 133.051 46.4576 132.026C42.9605 130.941 37.7149 129.313 34.7001 128.408C13.597 121.776 12.1499 121.414 11.8484 122.439Z" />
<path id="US-AL" title="18" class="land" d="M759.382 125.996C758.659 126.298 757.694 127.021 757.272 127.684C756.609 128.589 753.112 129.674 743.223 132.146C732.612 134.799 729.898 135.703 729.536 136.608C728.873 138.236 728.873 145.773 729.536 146.134C729.778 146.315 730.803 146.195 731.767 145.893C737.134 144.265 753.474 140.467 755.946 140.286C757.754 140.165 758.297 140.406 758.9 141.612C759.804 143.421 764.447 147.702 765.472 147.702C765.834 147.702 766.678 147.159 767.341 146.436C769.271 144.326 770.537 143.843 771.743 144.929C772.346 145.471 773.069 145.652 773.552 145.351C774.697 144.627 773.974 143.723 771.984 143.301C770.899 143.059 769.391 141.854 767.884 139.864C766.557 138.176 764.869 136.668 764.206 136.487C762.096 135.945 761.312 133.834 762.156 130.82C762.699 128.77 762.699 127.925 762.096 126.78C761.252 125.273 761.191 125.212 759.382 125.996Z" />
<path id="US-AL" title="19" class="land" d="M67.2584 139.924C67.1378 140.406 66.5952 142.336 66.0525 144.205C65.5702 146.134 64.7863 149.149 64.304 150.837C63.8216 152.586 62.6157 157.168 61.5907 160.967C60.5657 164.766 58.8774 170.855 57.9127 174.533C56.948 178.151 55.5009 183.517 54.7774 186.472C53.2097 192.682 52.1847 190.15 63.3392 207.394C67.4996 213.845 75.3982 226.085 80.8247 234.527C86.2512 242.968 94.3307 255.569 98.7925 262.564C103.254 269.498 108.138 277.215 109.706 279.567C113.444 285.476 113.987 285.536 113.987 280.351C113.987 276.431 115.253 269.859 116.459 267.508C117.243 266.121 119.353 266.242 121.222 267.689C124.177 269.98 125.081 269.377 126.528 264.192C127.312 261.659 128.277 257.077 128.759 254.122C129.181 251.108 130.146 246.103 130.809 242.968C132.256 236.637 134.366 226.628 135.15 222.468C135.452 220.96 135.934 218.669 136.236 217.343C136.537 216.016 137.321 212.218 137.984 208.901C139.853 199.857 142.144 189.125 143.531 182.673C146.727 167.841 148.234 160.243 148.295 158.796C148.355 158.013 146.968 157.651 135.391 154.938C117.785 150.777 110.671 149.089 97.4058 145.893C93.4263 144.929 86.2512 143.18 81.4277 142.034C69.6702 139.201 67.6805 138.899 67.2584 139.924Z" />
<path id="US-AL" title="20" class="land" d="M753.41 143.602C753.048 144.627 755.098 152.345 756.002 153.249C756.485 153.732 757.148 153.43 758.474 152.043C760.524 149.993 760.826 148.245 759.379 147.039C758.896 146.617 758.052 145.532 757.57 144.567C756.665 142.758 753.952 142.155 753.41 143.602Z" />
<path id="US-AL" title="21" class="land" d="M747.687 144.688C746.843 144.929 742.442 146.014 737.859 147.16C730.141 148.969 729.539 149.27 729.84 150.355C730.081 151.079 730.503 153.611 730.805 156.083C731.106 158.555 731.709 160.907 732.071 161.329C732.433 161.811 732.614 162.957 732.493 163.982C732.191 165.972 733.156 166.394 734.422 164.886C734.844 164.404 735.447 163.982 735.869 163.982C736.231 163.982 737.497 162.897 738.703 161.57C740.512 159.58 741.296 159.158 743.165 159.158C745.698 159.158 753.114 155.842 753.114 154.757C753.053 153.732 750.823 145.411 750.4 144.688C749.978 144.024 749.737 144.024 747.687 144.688Z" />
<path id="US-AL" title="22" class="land" d="M402.013 155.963C401.35 156.626 401.531 160.063 402.315 160.847C403.159 161.691 402.013 165.731 400.265 168.323C398.878 170.373 398.878 170.494 400.988 173.026C402.013 174.172 402.797 175.559 402.797 176.162C402.797 176.704 403.098 177.367 403.4 177.548C403.762 177.729 404.003 178.573 404.003 179.357C404.003 180.141 404.545 181.287 405.148 181.89C405.932 182.613 406.475 184.181 406.716 186.894C407.018 189.607 407.56 191.235 408.404 192.2C409.851 193.768 410.756 198.531 410.635 204.5L410.575 208.48L440.361 208.721C468.458 208.902 470.267 208.962 471.412 210.047C472.679 211.132 472.739 211.132 474.306 209.866C476.417 208.238 478.768 204.138 478.768 202.209C478.768 201.365 478.407 200.099 477.924 199.375C476.598 197.265 477.382 194.25 479.612 192.863C480.637 192.26 482.145 191.718 482.929 191.718C485.16 191.718 488.295 189.004 489.018 186.412C490.104 182.492 489.802 181.588 486.365 177.91C484.557 176.041 482.808 173.75 482.446 172.845C482.024 171.7 481.24 171.097 480.034 170.856C476.779 170.192 476.357 169.167 474.668 158.555L474.246 155.842L438.311 155.661C418.594 155.601 402.194 155.722 402.013 155.963Z" />
<path id="US-AL" title="23" class="land" d="M696.735 157.349C695.771 157.59 693.058 158.133 690.706 158.495C688.415 158.917 685.159 159.459 683.471 159.761C681.843 160.062 678.707 160.605 676.537 160.967C674.366 161.328 671.412 161.871 669.904 162.173C664.598 163.198 659.835 164.042 649.706 165.79C639.335 167.539 637.948 167.539 637.948 165.368C637.948 164.705 637.164 164.946 634.813 166.212L631.617 167.901L631.677 171.518C631.677 173.508 632.039 177.307 632.461 179.959C632.883 182.612 634.089 190.33 635.114 197.143L637.044 209.504L638.853 209.383C639.878 209.383 651.273 207.514 664.176 205.283C689.802 200.942 692.274 200.52 698.484 199.555C703.489 198.832 704.333 198.229 704.152 195.636C704.091 194.249 704.514 193.104 705.659 191.777C706.503 190.752 707.106 189.486 706.925 189.064C706.744 188.582 704.574 187.255 702.162 186.11C696.615 183.396 695.831 182.13 695.831 175.558C695.831 170.252 696.555 167.901 699.388 164.343C701.68 161.509 702.222 159.7 701.258 158.012C700.594 156.686 699.69 156.565 696.735 157.349Z" />
<path id="US-AL" title="24" class="land" d="M151.07 159.641C150.889 160.183 150.406 161.872 150.105 163.379C149.803 164.886 149.02 168.685 148.356 171.82C147.693 174.955 146.849 178.875 146.548 180.563C146.186 182.191 145.703 184.663 145.402 185.989C145.1 187.316 143.593 194.491 142.086 201.968C140.518 209.444 139.011 216.619 138.77 217.946C138.468 219.272 137.684 223.071 136.961 226.387C136.297 229.703 135.152 235.009 134.489 238.144C132.439 247.43 132.077 249.721 132.378 250.264C132.559 250.505 133.705 250.927 134.971 251.108C136.177 251.349 138.408 251.711 139.915 252.012C141.422 252.314 144.377 252.856 146.548 253.218C148.718 253.58 151.853 254.122 153.481 254.424C155.17 254.725 158.004 255.208 159.812 255.57C161.621 255.871 164.757 256.414 166.746 256.775C189.236 260.936 204.672 263.468 205.094 263.046C205.395 262.745 206.3 257.921 207.144 252.314C207.988 246.646 208.953 240.375 209.254 238.265C209.616 236.215 210.098 232.778 210.46 230.608C211.606 223.071 212.329 218.247 212.872 214.328C214.138 205.887 214.801 201.545 215.344 198.35C215.645 196.541 215.947 193.526 216.067 191.717L216.188 188.401L212.57 188.039C210.581 187.798 206.36 187.316 203.225 186.894C200.089 186.532 195.627 185.989 193.397 185.688C191.105 185.447 188.935 184.904 188.633 184.603C188.151 184.12 188.211 182.553 188.694 179.236C189.116 176.644 189.719 172.845 190.02 170.855C190.322 168.805 190.442 166.755 190.261 166.273C190.02 165.73 188.151 165.127 184.955 164.645C182.242 164.223 178.926 163.62 177.599 163.379C176.273 163.077 173.439 162.535 171.268 162.173C169.098 161.811 166.023 161.208 164.334 160.907C151.431 158.435 151.552 158.435 151.07 159.641Z" />
<path id="US-AL" title="25" class="land" d="M704.03 161.028C703.85 162.053 702.764 164.163 701.679 165.731C699.086 169.288 698.242 171.76 698.242 175.981C698.242 180.322 699.207 181.648 703.85 183.879C705.839 184.904 708.01 186.11 708.613 186.653C710 187.979 710 190.331 708.553 192.743C707.166 194.973 707.347 195.275 709.879 194.793C711.266 194.491 711.869 194.009 711.989 193.044C712.11 192.321 713.014 191.115 713.979 190.391C714.944 189.668 715.728 188.823 715.728 188.522C715.728 187.316 711.206 182.553 709.276 181.769C707.829 181.166 707.286 180.563 707.286 179.478C707.286 178.634 707.648 177.669 708.131 177.307C708.794 176.764 708.854 176.162 708.311 174.473C707.708 172.544 707.769 172.182 708.914 171.338C709.578 170.735 710.361 169.71 710.542 168.926C710.723 168.203 711.085 167.057 711.266 166.394C711.507 165.489 711.085 165.067 709.457 164.344C708.191 163.801 706.744 162.535 706.02 161.269C705.297 160.123 704.694 159.158 704.573 159.158C704.513 159.158 704.272 160.003 704.03 161.028Z" />
<path id="US-AL" title="26" class="land" d="M295.415 161.208C295.114 161.872 294.631 165.851 294.27 170.011C293.968 174.172 293.425 180.804 293.003 184.784C292.642 188.763 292.34 192.682 292.28 193.526C292.159 195.275 292.943 195.516 302.711 196.541C306.208 196.903 311.634 197.506 314.77 197.928L320.498 198.651V204.681C320.498 207.997 320.377 212.037 320.196 213.725L319.955 216.74L326.829 217.102C330.627 217.343 339.852 217.825 347.329 218.187C354.806 218.549 371.628 219.393 384.712 220.056C413.774 221.503 414.256 221.503 414.256 220.418C414.256 219.935 413.472 218.971 412.447 218.247C411.362 217.463 410.638 216.438 410.638 215.594C410.638 214.871 410.096 213.122 409.372 211.675C408.528 209.866 408.166 208.057 408.227 205.404C408.287 199.797 407.443 195.154 406.056 193.768C405.152 192.863 404.669 191.356 404.428 188.763C404.187 186.351 403.584 184.422 402.8 183.457C402.137 182.613 401.594 181.166 401.594 180.201C401.594 179.297 401.353 178.332 400.991 178.151C400.69 177.97 400.388 177.247 400.388 176.644C400.388 175.378 395.263 170.614 393.877 170.614C393.394 170.614 392.49 170.072 391.887 169.348C390.922 168.263 390.319 168.142 385.797 168.383C383.023 168.504 380.25 168.805 379.587 169.047C378.743 169.348 377.356 168.745 374.763 167.057C371.266 164.826 370.904 164.705 364.513 164.344C356.976 163.922 343.711 163.017 331.351 162.173C326.708 161.872 318.146 161.269 312.358 160.967C306.57 160.605 300.48 160.244 298.912 160.123C296.38 159.942 295.898 160.123 295.415 161.208Z" />
<path id="US-AL" title="27" class="land" d="M625.526 171.76C624.441 172.423 623.416 173.207 623.175 173.569C622.994 173.93 621.366 175.197 619.678 176.342C617.929 177.548 615.638 179.116 614.492 179.96C613.347 180.804 611.839 181.467 611.116 181.467C610.453 181.467 608.403 182.191 606.654 183.035C603.76 184.482 603.097 184.603 598.876 184.241C595.861 183.939 593.088 183.276 590.977 182.311C587.902 180.804 587.601 180.804 582.536 181.407C579.702 181.829 576.145 182.251 574.698 182.432C573.251 182.613 571.683 182.914 571.201 183.095C570.236 183.457 570.296 184.301 571.623 197.445C571.924 200.4 572.467 205.706 572.768 209.203C574.818 230.125 574.758 229.763 576.085 230.668C576.748 231.15 578.074 231.512 579.039 231.512C580.788 231.512 583.682 233.984 583.682 235.491C583.682 236.034 584.345 236.335 585.37 236.335C586.274 236.335 587.963 236.818 589.108 237.481C591.038 238.506 591.339 238.506 592.605 237.662C593.811 236.878 594.354 236.878 596.042 237.481C597.791 238.084 598.394 238.024 600.383 236.938C603.277 235.431 603.82 235.431 605.207 237.059C606.533 238.687 608.583 239.953 609.91 239.953C611.176 239.953 612.623 236.818 612.623 234.044C612.623 231.512 614.432 228.497 615.939 228.497C617.025 228.497 617.809 227.05 618.351 224.096C618.713 222.106 619.256 221.563 622.029 219.935C623.838 218.971 625.285 217.885 625.285 217.644C625.285 217.343 625.828 216.921 626.491 216.74C627.154 216.498 628.179 215.715 628.662 214.871C630.169 212.64 631.435 204.078 631.013 199.435C630.772 196.842 630.892 194.913 631.315 194.129C631.857 193.164 631.797 191.235 631.013 186.11C629.385 175.136 628.541 170.976 627.938 170.795C627.637 170.674 626.551 171.157 625.526 171.76Z" />
<path id="US-AL" title="28" class="land" d="M520.316 172.061C520.196 172.242 513.563 172.603 505.604 172.965C490.531 173.689 487.817 173.93 487.817 174.895C487.817 175.196 488.903 176.583 490.229 177.909C492.882 180.683 493.184 182.371 491.917 187.255C490.953 190.752 486.37 194.732 483.356 194.732C482.27 194.732 481.125 195.033 480.703 195.455C479.798 196.36 479.738 198.168 480.642 198.47C480.944 198.59 481.426 199.857 481.607 201.243C482.029 204.318 480.461 207.996 477.447 210.951C474.794 213.544 474.492 217.402 476.422 223.553C477.808 227.954 477.989 228.195 481.908 231.029C484.923 233.2 486.008 234.406 486.008 235.431C486.008 236.154 486.431 237.782 486.913 238.988C487.757 241.038 487.998 241.159 490.47 241.159C492.159 241.159 493.606 241.581 494.51 242.244L495.837 243.389L494.872 247.55C493.244 254.303 493.364 255.026 497.042 257.981C498.731 259.428 501.263 261.116 502.59 261.779C503.916 262.503 505.182 263.347 505.423 263.709C506.328 265.035 507.775 270.884 507.594 272.452C507.534 273.356 507.895 274.682 508.498 275.527L509.523 276.974L511.634 274.924L513.804 272.874L516.699 273.899C518.326 274.441 519.774 274.924 519.954 274.924C520.135 274.924 520.376 273.778 520.497 272.452C520.618 270.763 521.04 269.738 521.763 269.437C522.306 269.135 523.271 268.653 523.874 268.351C524.657 267.99 524.959 266.844 525.26 263.407C525.441 260.935 526.044 257.257 526.587 255.147C527.612 251.529 531.35 243.932 532.496 243.209C533.4 242.666 533.099 240.978 531.772 238.144C530.747 236.034 530.566 234.948 530.928 232.778C531.531 228.979 531.531 228.195 530.024 207.092C528.637 186.773 528.577 186.109 526.949 183.818C525.682 182.009 523.391 176.523 522.849 173.93C522.487 172.302 521.1 171.277 520.316 172.061Z" />
<path id="US-AL" title="29" class="land" d="M554.443 182.733C540.274 184.241 539.791 184.361 537.259 186.351C535.571 187.738 534.485 188.16 533.34 187.979C532.496 187.798 531.651 187.858 531.531 188.16C531.35 188.401 531.471 192.622 531.832 197.566C534.063 229.1 534.124 229.703 533.34 233.079C533.038 234.406 533.279 235.732 534.184 237.541C535.631 240.556 535.812 243.39 534.606 244.716C532.857 246.766 530.023 252.675 529.36 255.569C528.998 257.258 528.697 258.825 528.637 259.066C528.396 259.91 533.822 259.73 534.666 258.885C535.812 257.8 538.103 257.8 540.274 258.946C541.902 259.79 542.022 259.79 543.53 257.981C544.796 256.534 545.459 256.172 547.027 256.353C548.594 256.474 549.016 256.293 549.197 255.388C549.559 253.7 550.765 252.675 552.875 252.253C554.202 251.952 554.925 252.193 555.709 253.157C557.096 254.725 557.759 254.785 557.759 253.278C557.759 252.253 560.05 248.937 563.125 245.56C563.789 244.837 564.391 243.209 564.512 241.943C564.693 239.712 564.753 239.651 567.105 239.591C570.119 239.471 572.23 238.807 572.29 237.903C572.471 235.129 572.109 226.748 571.627 222.769C571.084 217.644 570.421 211.072 568.914 195.636C568.371 190.33 567.828 185.085 567.647 183.999L567.346 182.07L563.306 182.13C561.075 182.191 557.096 182.432 554.443 182.733Z" />
<path id="US-AL" title="30" class="land" d="M219.32 190.271C219.139 190.934 218.657 193.466 218.355 195.938C217.993 198.411 217.39 202.209 217.089 204.38C216.727 206.55 216.185 210.168 215.883 212.519C215.582 214.811 215.039 218.489 214.677 220.659C214.315 222.83 213.773 226.387 213.471 228.618C213.11 230.909 212.627 234.527 212.265 236.758C211.964 239.049 211.421 242.607 211.06 244.777C209.492 254.786 209.01 258.585 209.01 261.358L208.949 264.313L211.361 264.735C212.687 264.976 216.486 265.458 219.802 265.82C230.776 267.086 242.232 268.473 250.131 269.498C252.663 269.799 259.416 270.644 265.023 271.307C270.691 271.97 277.444 272.814 280.097 273.116C298.909 275.467 312.958 276.311 312.958 275.045C312.958 274.623 314.646 250.988 316.575 224.578C316.937 219.574 317.54 212.459 317.841 208.781C318.203 205.043 318.264 201.727 318.083 201.365C317.902 201.063 316.816 200.762 315.791 200.762C314.706 200.762 311.691 200.521 309.038 200.159C306.386 199.858 301.502 199.315 298.185 198.953C291.071 198.169 284.137 197.325 278.288 196.541C274.851 196.059 253.266 193.346 230.354 190.512C228.183 190.21 224.927 189.849 223.058 189.607C220.043 189.185 219.621 189.306 219.32 190.271Z" />
<path id="US-AL" title="31" class="land" d="M699.753 202.028C680.338 205.223 675.092 206.188 674.489 206.791C674.067 207.213 674.128 207.394 674.61 207.394C675.032 207.394 676.358 208.419 677.625 209.745C678.83 211.011 680.398 212.157 681.001 212.278C681.664 212.398 682.629 213.303 683.172 214.328C683.775 215.413 684.739 216.197 685.644 216.317C686.428 216.438 687.453 216.86 687.875 217.222C689.141 218.247 690.407 221.804 690.407 224.397C690.407 225.723 690.709 226.809 691.191 226.929C691.553 227.05 692.879 227.412 694.025 227.773C695.17 228.075 697.22 228.557 698.547 228.798C700.898 229.16 700.898 229.16 699.632 228.195C698.667 227.532 698.245 226.628 698.245 225.181C698.245 224.035 698.004 222.95 697.642 222.769C697.341 222.588 697.04 221.262 697.04 219.814C697.04 218.428 696.497 216.076 695.773 214.689L694.567 212.097L697.823 208.961C699.632 207.273 701.32 205.283 701.562 204.5C701.803 203.716 702.406 203.173 703.19 203.173C703.853 203.173 704.275 202.872 704.154 202.45C703.793 201.485 703.25 201.425 699.753 202.028Z" />
<path id="US-AL" title="32" class="land" d="M632.395 209.564C632.214 211.614 631.551 214.267 631.008 215.413C630.043 217.463 629.079 218.247 623.592 221.684C620.878 223.312 620.336 224.337 620.215 228.135C620.095 232.235 619.612 232.898 617.08 232.416L615.03 232.054V234.768C615.03 237.722 613.281 241.4 611.352 242.425C609.603 243.329 609.845 246.344 611.895 248.394C614.065 250.625 616.236 253.58 616.236 254.303C616.236 254.605 617.442 255.268 618.889 255.69C620.939 256.293 621.662 256.835 621.964 257.981C622.205 258.825 622.627 259.911 622.989 260.272C623.773 261.237 627.451 261.297 628.054 260.393C628.295 259.971 629.32 259.85 630.646 260.091C633.782 260.574 635.229 260.031 635.952 257.981C636.314 257.016 637.098 256.233 637.64 256.233C638.183 256.233 639.148 255.69 639.871 255.027C640.715 254.243 641.62 253.941 642.585 254.183C643.851 254.544 643.971 254.363 643.971 252.555C644.032 250.505 646.142 243.51 647.288 241.762C648.735 239.591 649.398 237.903 649.398 236.637C649.398 234.466 650.423 232.235 651.689 231.572C652.654 231.09 653.196 231.21 654.402 232.115C656.513 233.803 657.055 233.622 657.839 231.029C658.985 227.593 660.311 224.879 660.974 224.879C661.276 224.879 662.482 223.915 663.627 222.709C665.497 220.659 665.677 220.176 665.677 216.679C665.677 213.001 665.617 212.881 663.929 212.519C662.542 212.217 661.638 212.579 659.527 214.147C658.02 215.232 656.211 217.041 655.488 218.066C654.643 219.392 653.739 220.056 652.714 220.056C650.905 220.056 650.724 219.694 649.76 215.051C648.855 210.71 649.338 210.891 640.474 212.217C637.701 212.639 635.289 212.76 635.048 212.579C634.867 212.338 634.204 210.77 633.721 209.022L632.756 205.886L632.395 209.564Z" />
<path id="US-AL" title="33" class="land" d="M704.393 208.419C703.729 209.926 704.031 215.413 704.875 217.041C705.357 217.946 705.478 219.634 705.237 221.925C704.875 225.06 704.935 225.483 706.202 226.327C706.925 226.869 708.131 227.291 708.854 227.291C709.578 227.291 710.965 228.135 711.99 229.16C713.678 230.909 713.98 230.969 715.849 230.366C717.537 229.824 718.019 229.281 718.562 227.11C719.466 223.734 718.924 223.312 714.824 224.216C712.472 224.759 711.206 224.819 710.663 224.337C710.241 223.975 709.035 220.056 707.89 215.534C706.804 211.072 705.659 207.394 705.418 207.394C705.116 207.394 704.694 207.876 704.393 208.419Z" />
<path id="US-AL" title="34" class="land" d="M663.273 208.902C663.273 209.385 663.756 209.807 664.419 209.807C665.022 209.807 665.866 209.385 666.288 208.902C666.951 208.118 666.771 207.998 665.143 207.998C663.876 207.998 663.273 208.299 663.273 208.902Z" />
<path id="US-AL" title="35" class="land" d="M655.496 209.444L652.301 210.047L652.723 213.062C653.145 216.619 653.507 217.162 654.351 215.594C654.652 214.991 655.496 214.087 656.22 213.484C656.883 212.941 658.029 211.916 658.752 211.133C659.476 210.409 660.441 209.806 660.802 209.806C661.224 209.806 661.345 209.505 661.164 209.203C660.742 208.54 660.019 208.54 655.496 209.444Z" />
<path id="US-AL" title="36" class="land" d="M669.967 209.867C668.279 210.53 668.158 210.409 672.198 212.761C675.394 214.63 676.539 214.75 676.539 213.123C676.539 212.158 673.163 209.203 672.138 209.264C671.716 209.264 670.751 209.565 669.967 209.867Z" />
<path id="US-AL" title="37" class="land" d="M413.047 213.484C413.047 214.75 413.59 215.775 414.856 216.86C416.062 217.825 416.665 218.91 416.665 219.996C416.665 221.925 419.498 224.337 421.307 223.915C422.573 223.553 425.709 225.724 425.709 226.99C425.709 227.412 424.865 228.618 423.779 229.643L421.85 231.512L423.116 233.2C423.779 234.105 424.503 235.431 424.744 236.215C424.985 236.938 425.407 237.541 425.648 237.541C425.89 237.541 426.673 238.084 427.397 238.747C428.724 240.014 428.724 240.194 428.724 260.996C428.724 272.512 428.904 283.667 429.146 285.777L429.507 289.576L447.053 289.214C456.7 288.973 471.834 288.611 480.698 288.37C495.168 288.068 496.917 288.129 498.304 289.033C500.112 290.179 500.354 292.711 498.967 295.485C498.123 297.052 498.123 297.294 498.907 297.595C499.389 297.776 500.414 297.836 501.137 297.716C502.705 297.474 503.971 294.58 504.032 291.083C504.092 289.455 504.514 288.551 505.66 287.646C506.564 286.923 507.649 286.38 508.071 286.38C510.543 286.38 511.991 280.11 509.699 279.386C506.021 278.24 504.635 276.07 504.393 271.186C504.213 266.604 503.549 265.337 500.535 263.951C499.329 263.348 496.796 261.478 494.927 259.85C490.767 256.112 490.224 254.303 491.671 248.575C492.214 246.405 492.455 244.355 492.274 244.053C492.033 243.692 490.887 243.571 489.621 243.752C488.415 243.872 486.968 243.752 486.426 243.45C485.22 242.787 483.592 239.169 483.592 237.18C483.592 236.094 482.808 235.19 480.758 233.743C475.633 230.185 475.211 229.643 473.643 224.277C472.859 221.443 472.136 218.066 472.136 216.679C472.136 214.931 471.774 213.846 470.749 212.941C469.362 211.615 469.242 211.615 441.205 211.615H413.047V213.484Z" />
<path id="US-AL" title="38" class="land" d="M669.058 215.352C668.877 215.774 668.636 217.463 668.515 219.151C668.214 221.804 667.852 222.407 665.018 225.18C661.883 228.075 660.255 230.969 660.255 233.682C660.255 235.853 658.747 236.636 656.094 235.792C653.08 234.888 652.416 234.948 652.416 236.033C652.416 237.42 650.547 242.545 649.703 243.57C648.437 245.078 646.387 251.65 646.387 254.243C646.387 257.016 645.241 258.343 643.432 257.74C642.106 257.318 639.815 258.584 637.162 261.176C635.654 262.623 634.931 262.865 631.916 262.865C629.987 262.865 628.178 263.106 627.997 263.468C627.032 264.975 622.691 263.95 620.098 261.538C618.772 260.393 618.772 260.393 616.782 262.081C615.637 263.046 613.828 264.432 612.803 265.216C611.356 266.181 610.813 267.025 610.813 268.231C610.813 269.316 610.089 270.643 608.703 272.09C607.557 273.296 606.833 274.381 607.135 274.622C608.341 275.346 629.926 272.512 645.784 269.497C647.291 269.196 650.246 268.653 652.416 268.291C654.587 267.929 657.722 267.387 659.35 267.085C661.038 266.784 663.209 266.422 664.174 266.241C665.199 266.121 667.49 265.699 669.299 265.397C672.555 264.734 685.337 262.503 702.461 259.548C713.374 257.679 713.917 257.559 713.917 256.835C713.917 255.629 711.083 255.087 709.154 255.81C706.139 256.956 703.245 254.423 704.752 252.012C705.234 251.228 705.295 250.384 704.933 249.72C704.632 249.178 704.511 247.851 704.692 246.826C704.873 245.62 704.632 244.716 704.029 244.234C703.305 243.631 703.124 242.726 703.426 240.314C703.848 236.576 703.124 235.732 698.24 234.586C696.431 234.104 694.502 233.441 694.02 233.019C693.537 232.597 692.151 231.933 690.945 231.572C687.508 230.486 686.603 229.1 687.086 225.663C687.568 221.864 686.724 219.573 684.553 219.091C682.383 218.548 681.358 217.764 680.695 216.016C680.031 214.207 679.067 214.267 678.584 216.076C678.042 218.307 676.775 218.427 673.339 216.558C671.59 215.654 670.022 214.87 669.781 214.749C669.48 214.629 669.178 214.87 669.058 215.352Z" />
<path id="US-AL" title="39" class="land" d="M319.052 229.522C318.63 235.069 318.088 242.485 317.786 245.982C316.641 259.127 315.857 272.271 316.038 274.019L316.279 275.828L325.625 276.25C330.75 276.431 343.954 276.913 354.867 277.275C365.841 277.637 380.855 278.24 388.331 278.541C395.808 278.843 407.264 279.265 413.836 279.446L425.714 279.808V260.272V240.797L423.905 239.47C422.94 238.687 422.096 237.662 422.096 237.179C422.096 236.697 421.433 235.37 420.589 234.285C418.72 231.813 418.72 230.788 420.589 229.039C422.277 227.351 422.578 226.386 421.071 226.929C420.528 227.17 419.202 226.688 417.875 225.784C416.067 224.517 414.8 224.216 410.339 223.975C392.612 223.01 380.493 222.407 368.735 221.864C354.204 221.201 335.392 220.236 325.866 219.754L319.836 219.392L319.052 229.522Z" />
<path id="US-AL" title="40" class="land" d="M574.883 234.165C574.702 234.647 574.883 235.612 575.244 236.336C576.028 237.783 575.546 239.953 574.4 239.953C573.978 239.953 573.014 240.496 572.23 241.159C571.446 241.822 570.059 242.365 569.094 242.365C567.828 242.365 567.406 242.666 567.406 243.571C567.406 244.174 566.441 245.742 565.296 247.008C561.196 251.47 560.834 252.012 560.171 254.364C559.085 258.403 556.553 259.067 554.503 255.931C553.237 254.002 552.091 254.545 551.187 257.378C550.463 259.971 549.197 260.755 547.449 259.79C546.484 259.308 545.881 259.489 544.434 260.695C542.263 262.503 541.359 262.624 539.007 261.237C537.44 260.273 537.259 260.273 536.173 261.237C535.51 261.84 534.063 262.262 532.616 262.262C529.782 262.262 528.215 263.951 528.215 267.026C528.215 268.955 525.863 271.306 523.934 271.306C522.969 271.306 522.788 271.789 522.788 274.562C522.788 278.904 522.064 279.205 516.879 276.914C513.744 275.527 513.201 276.07 513.563 280.532C513.744 282.883 513.623 284.873 513.201 285.657C512.478 286.983 512.538 286.983 517.482 286.923C524.959 286.923 527.19 286.38 527.612 284.571C528.034 282.823 527.069 283.004 541.359 282.22C547.087 281.918 552.152 281.376 552.513 281.074C552.935 280.773 554.744 280.351 556.553 280.11C558.362 279.929 562.341 279.507 565.296 279.145C568.311 278.843 573.194 278.301 576.149 277.939C582.54 277.215 592.127 276.19 597.373 275.648C600.93 275.226 601.352 275.045 604.487 271.97C606.658 269.859 607.804 268.231 607.804 267.327C607.804 265.699 608.527 264.915 612.929 261.358C616.908 258.162 617.029 257.921 615.34 256.836C614.496 256.353 613.833 255.63 613.833 255.268C613.833 254.906 613.29 254.122 612.627 253.52C611.964 252.917 611.421 252.072 611.421 251.65C611.421 251.168 610.637 250.444 609.612 249.902C607.924 249.058 607.804 248.696 607.804 245.681C607.804 242.486 607.743 242.365 605.151 240.556C602.015 238.446 601.955 238.446 599.965 239.953C598.217 241.28 596.348 241.521 595.262 240.436C594.659 239.833 594.237 239.833 593.333 240.436C591.645 241.461 590.439 241.34 588.69 239.953C587.725 239.23 586.218 238.747 584.771 238.747C582.661 238.747 582.359 238.506 581.575 236.697C580.55 234.286 580.49 234.225 577.475 233.683C575.787 233.381 575.124 233.502 574.883 234.165Z" />
<path id="US-AL" title="41" class="land" d="M131.714 253.881C131.473 254.303 130.93 256.233 130.568 258.283C127.674 272.331 126.891 273.417 121.886 271.306C120.258 270.583 118.63 270.161 118.329 270.342C117.545 270.824 117.002 273.718 116.46 280.049C116.218 283.003 115.676 286.259 115.314 287.224C114.108 289.937 116.098 297.354 118.57 299.705C119.414 300.489 120.017 301.755 120.017 302.78C120.017 304.167 119.414 304.89 116.098 307.001C112.601 309.292 112.179 309.835 112.179 311.583C112.179 314.236 110.852 317.311 109.043 318.698C108.079 319.421 107.415 320.748 107.174 322.376C106.812 324.547 106.933 324.969 108.259 325.813C109.104 326.355 109.767 327.38 109.767 328.044C109.767 330.033 107.476 332.807 105.848 332.807C101.868 332.807 103.737 334.254 122.127 345.288C127.132 348.303 134.186 352.584 137.804 354.814C141.482 357.045 147.994 361.025 152.275 363.557C160.836 368.743 158.786 368.079 176.995 370.853C179.347 371.215 182.543 371.757 184.11 372.059C185.678 372.36 187.487 372.601 188.09 372.601C189.476 372.601 189.356 373.265 193.878 342.153C195.084 334.194 196.29 325.752 196.652 323.461C197.013 321.11 197.556 317.552 197.857 315.442C198.159 313.392 198.641 309.955 199.003 307.785C199.304 305.614 199.847 301.876 200.209 299.464C200.571 297.112 201.113 293.495 201.415 291.505C201.716 289.515 202.259 285.837 202.621 283.365C202.982 280.893 203.525 277.215 203.827 275.225C204.128 273.236 204.55 270.462 204.731 269.075L205.093 266.603L201.596 265.88C194.36 264.493 192.551 264.131 189.054 263.528C186.04 262.925 167.409 259.609 155.169 257.378C153.42 257.077 150.466 256.534 148.657 256.233C145.582 255.69 141.964 255.027 136.899 254.122C135.754 253.881 134.186 253.64 133.463 253.459C132.739 253.338 131.955 253.519 131.714 253.881Z"/>
<path id="US-AL" title="42" class="land" d="M708.798 261.358C702.95 262.383 689.444 264.734 686.188 265.337C678.53 266.603 675.938 267.086 672.621 267.689C670.632 268.05 667.376 268.653 665.386 268.955C663.396 269.317 660.442 269.859 658.754 270.1C657.126 270.402 654.111 270.944 652.121 271.246C643.318 272.693 630.475 274.984 630.053 275.225C629.812 275.406 629.45 276.733 629.269 278.24C628.908 280.411 628.486 281.134 627.099 281.858C625.953 282.461 625.29 283.305 625.169 284.39C624.989 285.898 624.687 286.139 622.275 286.38C619.984 286.621 619.441 286.983 618.718 288.49C617.633 290.842 617.03 291.143 614.738 290.781C612.387 290.42 610.216 291.445 610.216 292.952C610.216 294.037 607.865 296.63 606.84 296.63C606.478 296.63 605.393 297.595 604.368 298.74C602.74 300.549 602.137 300.851 599.785 300.851C596.771 300.851 596.107 301.393 594.962 304.83C594.479 306.157 593.515 307.483 592.671 307.905C590.56 308.99 592.49 309.473 595.806 308.749C597.253 308.388 599.544 308.086 600.81 308.086C602.137 308.086 604.85 307.785 606.84 307.423C610.337 306.82 611.844 306.217 618.055 302.901C620.406 301.695 622.034 301.393 630.415 300.971C636.625 300.609 640.303 300.609 640.846 301.032C641.208 301.333 642.474 301.815 643.559 301.996C644.825 302.298 645.73 302.961 646.273 304.046C647.117 305.855 647.478 305.915 651.639 305.132C653.206 304.83 656.462 304.227 658.874 303.805L663.155 303.082L666.712 305.493C668.642 306.82 673.345 310.257 677.143 313.091C684.499 318.577 685.344 318.939 689.444 317.492C692.519 316.407 694.086 314.899 695.172 311.945C697.342 305.855 702.708 300.549 707.351 299.946C710.788 299.464 713.079 297.776 713.682 295.243C713.984 293.917 713.863 293.676 713.139 293.977C712.597 294.158 712.054 294.701 711.873 295.183C711.692 295.665 711.15 296.027 710.728 296.027C709.401 296.027 708.919 291.565 709.944 289.455C710.848 287.767 710.848 287.767 708.497 287.043C705.603 286.199 705.361 284.752 707.833 283.908C708.798 283.546 709.763 282.883 709.944 282.4C710.366 281.255 711.692 281.315 714.104 282.762C716.637 284.27 717.601 283.968 719.591 280.893C721.34 278.24 721.701 276.733 720.254 277.939C718.988 279.024 716.395 278.18 715.612 276.431C715.009 275.045 714.888 274.984 712.838 275.828C708.858 277.517 706.085 276.733 706.085 273.899C706.085 273.115 705.783 271.969 705.361 271.367C703.613 268.533 706.929 267.146 708.979 269.919L710.125 271.487L711.873 270.281C715.25 267.869 716.516 266.121 715.792 264.915C715.431 264.252 714.888 263.046 714.526 262.081C714.225 261.177 713.742 260.514 713.501 260.514C713.2 260.574 711.15 260.936 708.798 261.358Z" />
<path id="US-AL" title="43" class="land" d="M207.811 267.629C207.69 267.809 207.147 270.945 206.605 274.623C206.062 278.24 205.339 283.064 205.037 285.295C204.675 287.586 204.133 291.143 203.831 293.314C203.47 295.485 202.987 298.982 202.625 301.152C201.48 308.689 200.756 313.513 200.214 317.432C199.671 321.351 198.947 326.175 197.802 333.712C197.44 335.882 196.958 339.319 196.596 341.369C196.294 343.479 195.33 349.931 194.486 355.719C193.641 361.507 192.737 367.657 192.496 369.346C191.893 373.144 192.074 373.808 194.064 373.808C194.968 373.808 196.716 374.109 198.043 374.471C200.997 375.315 201.6 374.712 202.565 369.949L203.349 366.391L209.8 366.813C213.298 367.055 219.146 367.597 222.764 368.019C228.552 368.682 229.336 368.682 229.637 367.838C229.818 367.296 230.18 366.753 230.421 366.572C230.662 366.391 235.968 366.693 242.239 367.296C248.449 367.838 256.71 368.622 260.508 368.984C264.307 369.285 270.276 369.828 273.773 370.19C290.354 371.758 288.726 371.758 289.088 370.13C289.269 369.346 289.51 366.21 289.751 363.256C289.932 360.241 290.354 354.996 290.656 351.498C290.957 348.001 291.5 341.912 291.862 337.932C292.163 333.953 292.706 327.441 293.067 323.461C293.369 319.482 293.912 312.97 294.273 308.991C295.359 296.871 296.082 288.129 296.444 283.004L296.866 278.06L292.706 277.457C290.415 277.095 286.194 276.492 283.3 276.13C280.345 275.829 275.763 275.286 273.05 274.924C259.544 273.296 242.179 271.246 237.295 270.643C230.421 269.859 223.367 269.015 218.001 268.292C211.549 267.448 208.052 267.206 207.811 267.629Z" />
<path id="US-AL" title="44" class="land" d="M622.213 275.769C621.972 276.01 619.56 276.311 603.883 277.939C601.23 278.241 596.467 278.783 593.332 279.145C590.197 279.507 585.192 280.049 582.177 280.351C579.223 280.652 574.339 281.195 571.324 281.497C568.37 281.858 563.305 282.341 560.109 282.702C556.914 283.004 553.477 283.667 552.452 284.21C551.065 284.933 548.653 285.175 542.865 285.235C532.977 285.235 530.806 285.657 529.841 287.586C529.118 289.094 528.937 289.094 518.566 289.576C512.778 289.878 507.713 290.36 507.352 290.661C506.628 291.204 505.965 294.641 505.603 299.645C505.422 301.695 505 302.6 503.854 303.444C502.95 304.047 502.287 305.072 502.287 305.675C502.287 306.278 501.744 308.026 501.081 309.594C500.418 311.162 499.875 313.212 499.875 314.237V316.106L515.13 315.684C530.203 315.322 559.748 313.091 575.846 311.101C578.318 310.8 582.117 310.378 584.167 310.137C587.845 309.775 588.086 309.654 588.87 307.725C589.352 306.579 590.076 305.675 590.558 305.675C590.98 305.675 592.066 304.228 592.97 302.479C594.658 298.982 596.286 297.836 599.663 297.836C600.808 297.836 601.954 297.475 602.195 296.992C602.436 296.51 603.823 295.304 605.27 294.279C606.657 293.254 607.803 291.928 607.803 291.264C607.803 289.576 609.732 288.25 612.747 287.827C614.857 287.526 615.822 287.044 616.786 285.717C617.631 284.632 618.656 283.969 619.982 283.848C621.429 283.727 622.153 283.245 622.695 282.099C623.117 281.255 624.142 280.23 624.987 279.748C626.072 279.205 626.494 278.422 626.494 277.216C626.494 275.708 626.313 275.527 624.504 275.527C623.359 275.527 622.334 275.648 622.213 275.769Z" />
<path id="US-AL" title="45" class="land" d="M299.753 279.085C299.331 279.808 299.09 281.436 299.211 282.642L299.392 284.873L305.12 285.295C308.255 285.536 317.661 286.139 325.921 286.622C334.242 287.164 341.899 287.767 343.045 287.948L345.095 288.31L344.673 304.951C344.432 314.116 344.13 322.376 343.949 323.22C343.708 324.185 343.889 325.09 344.432 325.512C348.11 328.526 349.195 329.19 350.823 329.19C353.476 329.19 354.501 329.732 355.466 331.601C356.129 332.868 356.913 333.35 358.601 333.591C362.038 334.073 364.389 334.616 365.836 335.34C366.56 335.701 368.188 335.822 369.514 335.701C371.986 335.34 373.856 336.003 373.856 337.269C373.856 337.691 374.459 338.596 375.242 339.319C376.388 340.404 376.689 340.465 377.714 339.681C379.342 338.535 380.247 338.596 381.513 339.982C382.779 341.369 387.422 341.731 390.678 340.706C392.366 340.163 393.09 340.224 394.175 340.947C394.898 341.429 396.768 342.274 398.275 342.756C400.928 343.66 401.109 343.66 402.857 342.394C404.063 341.55 405.51 341.128 407.199 341.128C408.585 341.188 410.093 340.947 410.575 340.706C410.997 340.404 412.444 340.465 413.771 340.826C415.459 341.249 416.303 341.249 416.846 340.706C417.991 339.56 419.86 339.982 422.996 342.093C424.624 343.238 426.674 344.324 427.397 344.565L428.844 344.987L428.483 336.304C428.241 331.601 427.819 320.869 427.458 312.609C427.156 304.288 426.674 294.279 426.433 290.299L426.011 283.064L421.488 282.642C419.016 282.401 408.404 281.919 397.974 281.557C387.543 281.195 372.348 280.652 364.208 280.351C356.069 279.989 341.417 279.507 331.649 279.205C321.882 278.843 310.848 278.421 307.17 278.18C300.658 277.758 300.417 277.818 299.753 279.085Z" />
<path id="US-AL" title="46" class="land" d="M298.851 288.491C298.67 289.033 298.369 291.264 298.188 293.495C298.007 295.726 297.585 300.489 297.283 304.167C296.982 307.785 296.439 314.297 296.078 318.638C295.716 322.919 295.173 329.31 294.872 332.807C294.208 340.163 293.364 350.293 292.46 361.749C292.098 366.21 291.495 370.913 291.194 372.18L290.591 374.471L287.154 374.169C285.285 373.988 280.461 373.566 276.482 373.205C272.502 372.843 266.835 372.3 263.82 371.999C260.865 371.697 255.137 371.155 251.158 370.793C247.179 370.431 241.511 369.888 238.617 369.527C232.467 368.863 231.02 369.285 234.155 370.913C235.783 371.758 236.506 372.602 237.049 374.471C237.471 375.858 238.496 377.365 239.521 378.089C240.486 378.752 241.631 380.078 242.054 380.922C243.018 382.792 247.661 387.615 253.389 392.8L257.429 396.418L258.755 403.955C259.479 408.356 260.564 412.457 261.348 413.843C262.011 415.17 265.629 419.029 269.307 422.405C274.432 427.168 276.663 428.736 278.652 429.279C281.727 430.123 280.944 430.786 286.611 421.742L290.41 415.712L300.6 415.893C306.267 416.014 311.272 416.255 311.754 416.376C312.237 416.557 314.287 418.607 316.276 420.898C318.266 423.249 320.919 426.264 322.125 427.651C324.718 430.545 325.923 432.957 328.396 440.011C329.541 443.327 331.049 446.161 332.918 448.452C334.425 450.322 335.993 452.854 336.415 454C336.897 455.145 338.947 457.738 341.057 459.788C344.313 462.863 344.916 463.767 344.916 465.516C345.037 475.042 351.308 486.137 357.578 487.765C359.086 488.126 361.558 489.091 363.065 489.935C365.115 490.96 366.864 491.382 369.396 491.382C372.109 491.443 373.798 491.865 376.571 493.191C378.561 494.216 380.792 495 381.515 495C382.721 495 382.902 494.819 382.54 493.312C382.299 492.407 381.636 490.598 381.033 489.272C380.43 487.946 379.887 485.895 379.887 484.69C379.887 483.484 379.586 481.675 379.224 480.65C378.681 479.022 378.742 478.419 379.827 476.67L381.153 474.62L379.284 473.294C378.32 472.57 377.475 471.485 377.475 470.942C377.475 469.435 379.043 468.289 380.49 468.651C381.274 468.832 381.937 468.591 382.299 467.867C383.324 465.938 383.023 464.431 381.455 464.009C380.671 463.828 379.887 463.225 379.646 462.742C379.164 461.416 381.395 459.426 383.384 459.426C385.796 459.426 386.942 458.522 385.977 457.376C384.59 455.688 385.434 453.939 388.148 452.854C389.474 452.311 391.223 451.166 391.946 450.261C392.851 449.116 393.815 448.573 394.961 448.573C396.649 448.573 396.71 448.452 396.167 447.005C395.443 445.076 396.287 443.267 398.157 442.905C401.292 442.242 404.548 442.122 405.03 442.544C405.271 442.845 407.02 443.147 408.829 443.207C413.291 443.388 417.451 441.458 418.476 438.745C418.838 437.66 419.561 435.911 420.044 434.826C420.526 433.741 420.888 430.907 420.888 428.495C420.888 423.31 421.913 421.26 424.385 421.561C425.35 421.682 426.254 422.345 426.676 423.129C427.942 425.661 428.425 425.842 431.017 424.515C432.404 423.792 434.575 423.249 435.961 423.249C437.77 423.249 438.373 423.008 438.373 422.285C438.373 421.802 439.217 420.174 440.182 418.727C441.87 416.315 441.991 415.652 441.991 411.009C441.991 407.633 442.292 405.281 442.895 404.196C444.222 401.603 444.101 395.755 442.594 393.886C441.931 393.042 441.267 391.474 441.026 390.328C440.845 389.183 440.423 388.097 440.122 387.917C439.82 387.736 439.579 386.711 439.579 385.625C439.579 384.239 439.036 383.153 437.77 381.947L435.961 380.199V365.608C435.961 349.81 435.841 349.268 432.766 350.051C431.62 350.293 430.655 349.991 429.208 348.906C428.123 348.122 426.495 347.278 425.651 347.097C424.807 346.856 423.058 345.891 421.732 344.806C419.983 343.419 419.019 343.057 417.873 343.359C417.029 343.6 414.979 343.721 413.23 343.66C411.542 343.66 409.974 343.841 409.793 344.203C409.552 344.565 408.768 344.565 407.563 344.143C406.055 343.6 405.513 343.721 404.427 344.685C403.704 345.348 402.558 346.072 401.955 346.313C400.81 346.735 396.71 345.529 393.574 343.841C392.067 343.057 391.705 343.057 390.439 343.901C389.595 344.444 388.931 345.168 388.931 345.469C388.931 345.831 388.389 346.072 387.726 346.072C387.062 346.072 386.52 345.65 386.52 345.168C386.52 344.203 386.58 344.203 383.384 344.022C382.118 343.901 380.611 343.419 380.008 342.876C379.284 342.213 378.681 342.093 378.078 342.454C377.596 342.756 376.631 343.057 375.908 343.057C374.581 343.057 371.446 340.163 371.446 338.897C371.446 338.294 370.722 338.173 368.371 338.475C366.08 338.776 364.994 338.656 364.271 338.053C363.246 337.148 361.196 336.545 357.397 336.003C355.769 335.762 354.744 335.159 353.84 333.953C352.875 332.687 352.031 332.204 350.584 332.204C349.559 332.204 348.052 331.662 347.268 331.059C346.424 330.456 344.856 329.37 343.71 328.767L341.6 327.562V319.784C341.6 315.503 341.721 307.242 341.902 301.454L342.203 290.902L338.887 290.48C337.078 290.299 328.516 289.636 319.894 289.154C311.272 288.611 303.072 288.068 301.685 287.888C299.876 287.707 299.092 287.888 298.851 288.491Z"/>
<path id="US-AL" title="47" class="land" d="M479.677 291.023C478.713 291.144 467.016 291.445 453.751 291.686L429.633 292.108V298.439C429.693 308.086 431.08 343.721 431.502 345.59C431.864 347.097 432.165 347.278 434.456 347.278C435.843 347.278 437.29 347.64 437.652 348.062C438.014 348.484 438.376 350.715 438.496 353.006L438.677 357.227L445.611 357.407C449.409 357.468 459.238 357.347 467.438 357.106C483.295 356.563 484.622 356.322 483.114 353.91C482.752 353.247 482.391 351.679 482.391 350.413C482.391 349.147 482.089 347.821 481.727 347.459C481.185 346.916 481.366 346.072 482.33 344.022C482.994 342.515 483.597 340.887 483.597 340.404C483.597 339.922 483.838 339.319 484.2 339.138C484.501 338.957 485.044 337.751 485.345 336.546C485.707 335.34 487.094 332.988 488.42 331.36C490.169 329.25 490.832 327.923 490.832 326.416C490.832 324.909 491.435 323.763 492.942 322.014C494.088 320.748 495.053 319.301 495.053 318.819C495.053 318.337 495.595 317.432 496.258 316.829C497.042 316.106 497.464 314.96 497.464 313.392C497.464 312.126 498.007 309.956 498.67 308.629C499.394 307.303 499.756 305.675 499.575 305.072C499.334 304.288 499.756 303.444 501.142 302.238L503.011 300.55L498.007 300.248C495.294 300.067 492.942 299.645 492.822 299.344C492.701 298.982 493.726 297.475 495.053 296.027C496.439 294.46 497.404 292.832 497.283 292.108C497.163 290.963 496.681 290.902 489.325 290.842C485.044 290.782 480.702 290.902 479.677 291.023Z" />
<path id="US-AL" title="48" class="land" d="M629.507 303.986C622.151 304.469 621.005 304.71 617.569 306.398C615.458 307.483 613.589 308.569 613.468 308.81C613.288 309.051 612.685 309.292 612.142 309.292C611.117 309.292 607.801 312.91 607.801 314.056C607.801 314.9 611.901 317.553 614.071 318.095C615.338 318.397 616.061 319.181 616.905 321.05C617.508 322.437 619.076 324.487 620.282 325.512C627.939 331.963 629.748 333.41 630.17 333.41C630.472 333.41 631.798 334.918 633.125 336.726C634.451 338.535 636.682 340.646 638.129 341.49C639.998 342.575 641.023 343.781 641.807 345.59C643.375 349.509 643.676 349.931 645.003 350.534C646.45 351.197 648.62 354.453 649.163 356.744C649.766 359.337 649.947 359.397 651.997 358.372C655.373 356.624 655.554 356.382 654.228 354.513C653.564 353.549 653.022 352.463 653.022 352.102C653.022 350.594 655.132 349.75 658.81 349.69H662.548L666.95 344.504C669.422 341.61 672.437 338.294 673.703 337.028C675.813 334.978 675.934 334.676 675.271 333.229C674.668 331.903 674.728 331.36 675.693 329.973C676.296 329.069 677.26 327.26 677.863 326.054C678.406 324.788 679.552 323.462 680.396 323.1C681.24 322.678 682.024 322.075 682.204 321.653C682.446 320.989 673.462 313.814 665.201 308.147C663.031 306.639 661.885 306.639 651.635 308.026C648.681 308.448 645.967 308.629 645.485 308.448C645.063 308.328 644.339 307.423 643.857 306.458C643.375 305.433 642.47 304.71 641.566 304.589C640.722 304.469 639.817 304.107 639.516 303.805C639.154 303.504 638.611 303.323 638.31 303.323C637.948 303.383 633.969 303.685 629.507 303.986Z" />
<path id="US-AL" title="49" class="land" d="M600.264 310.799C599.963 310.92 597.25 311.342 594.235 311.643C580.548 313.151 571.323 314.236 571.082 314.477C570.901 314.658 572.348 319.964 574.036 324.968C574.277 325.813 575.363 329.189 576.327 332.505C581.754 350.353 583.925 356.804 585.552 359.939C587.482 363.798 587.723 365.667 586.397 367.416C585.251 368.923 585.251 371.998 586.336 373.566C586.939 374.41 587.18 376.46 587.12 380.741L587 386.771L589.351 390.328L591.642 393.885L596.586 393.463C599.239 393.282 608.947 392.8 618.051 392.438L634.572 391.775L635.718 393.162L636.863 394.609L636.441 391.775C635.778 387.253 636.26 386.529 640.24 386.349L643.677 386.168L644.038 383.454C644.219 381.947 644.882 379.535 645.425 378.088C645.968 376.641 646.39 374.712 646.39 373.747C646.39 372.842 647.234 370.009 648.199 367.537C650.008 363.014 650.128 361.748 648.56 361.748C647.656 361.748 646.39 359.216 646.39 357.467C646.39 355.779 644.641 353.307 642.953 352.644C642.169 352.342 641.385 351.619 641.144 351.076C639.697 346.855 638.31 344.685 636.14 343.238C634.813 342.394 632.944 340.705 632.04 339.439C629.99 336.605 622.634 329.792 621.729 329.792C620.644 329.792 616.182 324.968 615.278 322.798C614.675 321.29 613.529 320.386 610.575 318.939C608.404 317.854 606.173 316.467 605.631 315.864C604.666 314.779 604.666 314.537 605.57 312.608L606.595 310.498L603.701 310.558C602.134 310.558 600.626 310.679 600.264 310.799Z"/>
<path id="US-AL" title="50" class="land" d="M562.881 315.02C562.58 315.141 558.6 315.563 554.138 315.925C537.618 317.191 533.457 317.673 532.975 318.156C532.251 318.879 533.216 405.462 533.94 405.462C534.603 405.462 535.085 404.015 536.05 398.95C537.135 393.343 539.668 394.73 540.331 401.362C540.572 403.473 540.994 405.523 541.296 405.824C541.597 406.126 542.743 406.065 544.069 405.703L546.36 405.101L545.938 402.267C545.697 400.458 545.034 398.95 544.13 398.106C542.924 397.021 542.803 396.539 543.285 394.85C544.25 391.595 542.682 391.896 564.69 390.087C568.669 389.725 573.975 389.303 576.448 389.122C584.105 388.58 583.442 389.243 583.864 381.827C584.226 376.521 584.105 375.134 583.321 373.928C582.236 372.3 582.417 369.285 583.683 366.21C584.406 364.462 584.346 364.04 582.899 361.206C581.211 358.071 580.608 356.382 578.317 348.785C575.845 340.645 574.458 336.123 573.372 332.807C572.83 330.998 571.503 326.657 570.418 323.16C569.393 319.663 568.368 316.407 568.067 315.925C567.644 315.08 564.268 314.478 562.881 315.02Z" />
<path id="US-AL" title="51" class="land" d="M504.394 318.759C499.088 319 497.46 319.362 497.46 320.326C497.46 320.748 496.676 321.894 495.651 322.859C494.626 323.823 493.842 325.21 493.842 325.994C493.842 328.165 492.456 331.059 490.285 333.35C489.26 334.435 488.416 335.943 488.416 336.666C488.416 337.39 487.934 338.656 487.391 339.44C486.125 341.188 484.678 344.806 484.678 346.072C484.678 346.555 484.859 348.303 485.039 349.991C485.582 354.333 485.763 357.227 485.884 362.412C486.004 366.512 486.185 367.236 487.813 369.286C489.923 371.939 490.044 372.783 488.416 374.411C487.753 375.074 487.21 376.099 487.21 376.702C487.21 377.305 486.125 378.812 484.798 380.078C483.11 381.646 482.386 382.852 482.386 383.998C482.386 384.902 482.085 385.927 481.723 386.289C480.336 387.676 479.372 394.549 480.397 395.514C480.638 395.815 487.21 395.755 494.988 395.514C502.766 395.212 509.338 395.092 509.64 395.273C510.303 395.695 510.243 398.71 509.519 400.579C509.037 401.905 509.278 402.508 511.328 404.86C512.654 406.427 513.74 407.874 513.74 408.176C513.74 409.02 518.804 408.055 520.312 406.91C521.397 406.005 522.784 405.764 526.221 405.764H530.683L530.321 362.774C530.08 339.199 529.838 319.482 529.718 319.06C529.477 318.337 517.056 318.216 504.394 318.759Z" />
<path id="US-AL" title="52" class="land" d="M460.383 359.94C449.107 360.121 439.521 360.483 439.159 360.724C438.556 361.086 438.375 363.618 438.375 369.828V378.39L440.184 380.139C441.269 381.224 441.993 382.49 441.993 383.455C441.993 384.299 442.535 386.168 443.199 387.555C443.862 388.882 444.404 390.389 444.404 390.871C444.404 391.354 445.007 392.198 445.671 392.861C446.816 393.886 446.937 394.489 446.696 398.529C446.515 401.001 445.972 404.016 445.369 405.221C444.585 406.97 444.465 407.754 445.007 409.08C445.852 411.311 445.249 414.929 443.379 418.607C442.596 420.235 441.993 421.682 442.113 421.742C442.234 421.863 443.379 421.742 444.706 421.441C447.721 420.717 453.087 420.717 455.86 421.38C457.006 421.682 460.081 422.466 462.613 423.189C465.206 423.853 467.437 424.455 467.558 424.455C467.739 424.455 468.341 423.491 468.884 422.345C470.331 419.21 472.803 419.27 479.074 422.586C482.089 424.154 483.777 425.541 484.983 427.35C485.948 428.736 487.153 429.882 487.756 429.882C488.299 429.882 489.324 430.304 489.987 430.786C491.253 431.751 493.605 431.992 494.087 431.148C494.63 430.364 500.358 429.761 501.564 430.425C502.408 430.847 502.83 430.726 503.373 429.822C503.795 429.219 504.096 428.194 504.096 427.591C504.096 424.817 507.473 424.214 510.246 426.566C511.211 427.41 512.417 428.073 512.839 428.073C513.321 428.073 514.407 429.038 515.311 430.183C516.999 432.414 518.567 432.836 519.713 431.45C520.557 430.485 520.014 430.003 516.155 428.073C513.14 426.626 511.392 424.757 511.332 423.069C511.332 422.466 512.417 420.838 513.743 419.511C515.974 417.16 516.698 415.532 515.793 414.627C515.552 414.386 514.286 415.05 512.96 416.014C509.945 418.185 509.221 418.245 507.955 416.316C506.81 414.567 506.207 414.447 504.94 415.713C502.77 417.823 498.851 415.472 498.308 411.733C498.006 409.985 498.187 409.261 499.212 408.236C500.78 406.669 503.192 406.608 507.111 408.176C510.668 409.563 510.97 408.96 508.257 405.885C506.629 404.016 506.387 403.413 506.689 401.121C506.87 399.192 506.749 398.348 506.146 398.107C505.664 397.926 499.212 398.107 491.736 398.529C481.968 399.071 477.989 399.132 477.386 398.649C475.999 397.504 477.084 388.279 478.833 385.746C479.496 384.902 479.978 383.455 479.978 382.611C479.978 381.646 480.762 380.32 482.089 379.054C483.234 377.908 484.199 376.521 484.199 375.918C484.199 375.315 484.802 374.17 485.465 373.446L486.792 372.059L485.164 370.19C483.234 367.839 482.752 366.03 483.234 362.593C483.415 361.146 483.355 359.94 483.053 359.94C482.752 359.94 482.149 359.88 481.667 359.759C481.245 359.699 471.658 359.759 460.383 359.94Z" />
<path id="US-AL" title="53" class="land" d="M639.338 390.208C639.579 390.932 639.519 392.68 639.338 394.128C638.976 396.6 638.916 396.72 636.866 396.72C635.539 396.72 634.213 396.238 633.489 395.575C632.283 394.429 631.68 394.429 623.179 394.911C607.984 395.816 590.077 396.238 589.353 395.695C588.992 395.454 588.208 394.308 587.665 393.223C586.7 391.354 586.58 391.294 582.842 391.294C580.791 391.294 576.933 391.535 574.28 391.897C571.687 392.198 564.512 392.861 558.482 393.404C544.434 394.67 544.132 394.73 547.569 397.263C549.016 398.348 549.318 398.951 549.076 400.097C548.474 402.508 549.197 402.931 551.549 401.483C553.478 400.278 553.779 400.217 555.287 401.061C556.613 401.845 557.337 401.845 560.472 401.182C566.019 399.976 566.622 400.097 569.155 402.75C570.662 404.317 571.988 405.161 572.953 405.161C573.797 405.161 574.822 405.584 575.244 406.066C575.666 406.548 576.631 406.97 577.475 406.97C578.38 406.97 580.068 408.056 582.118 409.985C583.867 411.613 585.736 413 586.218 413C587.424 413 593.393 410.588 594.539 409.623C595.021 409.201 596.167 408.598 597.131 408.236C598.036 407.875 598.759 407.211 598.759 406.729C598.759 404.619 604.246 403.835 608.045 405.403C610.517 406.428 617.451 411.673 617.451 412.517C617.451 412.879 618.657 414.266 620.043 415.713C621.912 417.522 623.42 418.426 625.048 418.667C628.967 419.391 629.57 420.175 630.836 426.687C631.499 429.943 632.223 434.887 632.404 437.721C632.826 442.725 632.886 442.846 634.454 443.027C636.444 443.268 637.107 445.016 636.504 448.634C636.021 451.588 637.408 454.965 640.604 458.643C642.352 460.633 643.317 461.175 645.066 461.356C647.055 461.537 647.477 461.838 648.925 464.552C649.829 466.18 650.613 468.169 650.613 468.833C650.613 469.556 651.095 470.762 651.698 471.546C652.301 472.33 653.386 474.259 654.17 475.767C655.316 478.058 655.979 478.721 658.029 479.324C662.672 480.711 667.495 486.198 667.495 490.117C667.495 492.287 669.123 492.227 673.766 489.936C676.238 488.73 678.59 487.765 679.012 487.765C679.554 487.765 679.916 486.981 679.976 485.776C680.037 484.75 680.338 481.856 680.7 479.445C681.363 475.224 681.122 470.28 679.615 459.728C678.951 455.085 678.409 454 669.003 439.228C667.978 437.54 666.651 434.163 666.048 431.691C664.601 425.662 663.757 424.215 659.356 419.934C656.461 417.1 655.557 415.834 655.255 414.025C655.075 412.759 654.17 410.226 653.266 408.297C652.361 406.428 651.336 404.197 650.975 403.353C650.613 402.508 649.708 400.881 648.985 399.735C648.261 398.589 646.935 395.635 646.03 393.223L644.342 388.882H641.689C639.217 388.882 639.036 389.002 639.338 390.208Z" />
</svg>