<svg width="69" height="83" viewBox="0 0 69 83" fill="none" xmlns="http://www.w3.org/2000/svg">
<g filter="url(#filter0_d_3913_30586)">
<mask id="path-1-outside-1_3913_30586" maskUnits="userSpaceOnUse" x="9.64648" y="3.37549" width="50" height="65" fill="black">
<rect fill="white" x="9.64648" y="3.37549" width="50" height="65"/>
<path fill-rule="evenodd" clip-rule="evenodd" d="M52.0093 40.8312C54.5732 37.2585 56.0832 32.8753 56.0832 28.1388C56.0832 16.1193 46.3596 6.37549 34.3648 6.37549C22.3701 6.37549 12.6465 16.1193 12.6465 28.1388C12.6465 32.8845 14.1623 37.2754 16.7353 40.8519L16.7187 40.869L32.604 63.7118C33.4745 64.9635 35.3238 64.9611 36.191 63.7072L52.011 40.8329L52.0093 40.8312Z"/>
</mask>
<path fill-rule="evenodd" clip-rule="evenodd" d="M52.0093 40.8312C54.5732 37.2585 56.0832 32.8753 56.0832 28.1388C56.0832 16.1193 46.3596 6.37549 34.3648 6.37549C22.3701 6.37549 12.6465 16.1193 12.6465 28.1388C12.6465 32.8845 14.1623 37.2754 16.7353 40.8519L16.7187 40.869L32.604 63.7118C33.4745 64.9635 35.3238 64.9611 36.191 63.7072L52.011 40.8329L52.0093 40.8312Z" fill="#D02A48"/>
<path d="M52.0093 40.8312L49.572 39.0821L48.1101 41.1191L49.8553 42.9193L52.0093 40.8312ZM16.7353 40.8519L18.8854 42.944L20.6393 41.1415L19.1706 39.1L16.7353 40.8519ZM16.7187 40.869L14.5685 38.7769L12.843 40.5504L14.2557 42.5818L16.7187 40.869ZM32.604 63.7118L30.1411 65.4246L30.1411 65.4247L32.604 63.7118ZM36.191 63.7072L38.6584 65.4137L36.191 63.7072ZM52.011 40.8329L54.4784 42.5394L55.8796 40.5134L54.165 38.7448L52.011 40.8329ZM53.0832 28.1388C53.0832 32.2277 51.7819 36.0026 49.572 39.0821L54.4467 42.5803C57.3646 38.5143 59.0832 33.523 59.0832 28.1388H53.0832ZM34.3648 9.37549C44.6969 9.37549 53.0832 17.7703 53.0832 28.1388H59.0832C59.0832 14.4683 48.0223 3.37549 34.3648 3.37549V9.37549ZM15.6465 28.1388C15.6465 17.7703 24.0328 9.37549 34.3648 9.37549V3.37549C20.7074 3.37549 9.64648 14.4683 9.64648 28.1388H15.6465ZM19.1706 39.1C16.9528 36.0172 15.6465 32.2356 15.6465 28.1388H9.64648C9.64648 33.5334 11.3718 38.5336 14.3 42.6039L19.1706 39.1ZM18.8688 42.9611L18.8854 42.944L14.5851 38.7598L14.5685 38.7769L18.8688 42.9611ZM35.067 61.999L19.1817 39.1562L14.2557 42.5818L30.1411 65.4246L35.067 61.999ZM33.7236 62.0007C34.0474 61.5327 34.7421 61.5318 35.067 61.999L30.1411 65.4247C32.2069 68.3953 36.6002 68.3896 38.6584 65.4137L33.7236 62.0007ZM49.5436 39.1265L33.7236 62.0007L38.6584 65.4137L54.4784 42.5394L49.5436 39.1265ZM49.8553 42.9193L49.857 42.9211L54.165 38.7448L54.1633 38.743L49.8553 42.9193Z" fill="white" mask="url(#path-1-outside-1_3913_30586)"/>
</g>
<path d="M48.5222 28.7727L45.8745 26.2075C45.6752 26.0144 45.3521 26.0144 45.1529 26.2075L38.4807 32.6718C38.2814 32.8648 38.2814 33.1778 38.4807 33.3708L41.1284 35.9361C41.3277 36.1291 41.6507 36.1291 41.85 35.9361L48.5222 29.4718C48.7215 29.2787 48.7215 28.9657 48.5222 28.7727Z" fill="white"/>
<path d="M36.0828 21.8711H32.3383C32.0566 21.8711 31.8281 22.0924 31.8281 22.3654V31.5073C31.8281 31.7803 32.0566 32.0016 32.3383 32.0016H36.0828C36.3646 32.0016 36.5931 31.7803 36.5931 31.5073V22.3654C36.5931 22.0924 36.3646 21.8711 36.0828 21.8711Z" fill="white"/>
<path d="M27.5735 35.9382L30.2212 33.373C30.4205 33.1799 30.4205 32.8669 30.2212 32.6739L23.549 26.2096C23.3498 26.0165 23.0267 26.0165 22.8275 26.2096L20.1797 28.7748C19.9805 28.9679 19.9805 29.2809 20.1797 29.4739L26.8519 35.9382C27.0512 36.1313 27.3742 36.1313 27.5735 35.9382Z" fill="white"/>
<defs>
<filter id="filter0_d_3913_30586" x="0.646484" y="0.375488" width="67.4375" height="82.2734" filterUnits="userSpaceOnUse" color-interpolation-filters="sRGB">
<feFlood flood-opacity="0" result="BackgroundImageFix"/>
<feColorMatrix in="SourceAlpha" type="matrix" values="0 0 0 0 0 0 0 0 0 0 0 0 0 0 0 0 0 0 127 0" result="hardAlpha"/>
<feOffset dy="6"/>
<feGaussianBlur stdDeviation="4.5"/>
<feComposite in2="hardAlpha" operator="out"/>
<feColorMatrix type="matrix" values="0 0 0 0 0 0 0 0 0 0 0 0 0 0 0 0 0 0 0.42 0"/>
<feBlend mode="normal" in2="BackgroundImageFix" result="effect1_dropShadow_3913_30586"/>
<feBlend mode="normal" in="SourceGraphic" in2="effect1_dropShadow_3913_30586" result="shape"/>
</filter>
</defs>
</svg>
